<svg width="519" height="528" viewBox="0 0 519 528" fill="none" xmlns="http://www.w3.org/2000/svg">
<path d="M95.5048 113.922C93.5768 113.922 91.6475 113.606 89.7849 113.117C86.0342 112.129 82.5542 110.153 79.6475 107.602C79.4675 107.443 79.2888 107.279 79.2048 107.201L79.0315 107.039C77.5969 105.713 76.3195 104.197 75.2275 102.577C74.1448 100.971 73.2275 99.2352 72.5489 97.4219C72.3315 96.8405 72.1382 96.2539 71.9675 95.6885C71.1715 93.0325 70.8648 90.1979 71.1222 87.5566C71.2768 85.9072 71.6115 84.2685 72.1435 82.8245C72.1915 82.6899 72.2409 82.5553 72.2489 82.5339C72.5035 81.8139 72.8235 81.1232 73.1595 80.4752C73.1689 80.4552 73.1782 80.4379 73.1888 80.4192C73.1982 80.4019 73.2048 80.3846 73.2075 80.3792C73.6662 79.5179 74.1915 78.7059 74.7675 77.9192C75.3235 77.1659 75.9689 76.4779 76.6369 75.8245C78.0182 74.4685 79.6795 73.3792 81.4275 72.5566C84.3622 71.1739 87.6275 70.6246 90.8569 70.7766C90.8955 70.7739 90.9328 70.7739 90.9715 70.7766C91.4342 70.8006 91.8995 70.8405 92.3622 70.8965C92.3849 70.8992 92.4062 70.9019 92.4289 70.9059C92.5022 70.9139 92.5729 70.9233 92.6435 70.9339C92.8195 70.9553 92.9942 70.9806 93.1702 71.0046C93.2169 71.0112 93.2635 71.0219 93.3048 71.0365C94.5675 71.2419 95.8142 71.5379 97.0302 71.9472C98.6995 72.5099 100.304 73.2419 101.824 74.1326C105.192 76.1059 108.094 78.8646 110.278 82.0926C110.445 82.3352 110.604 82.5806 110.736 82.7926C110.802 82.9032 110.867 83.0112 110.919 83.0939C111.989 84.8005 112.817 86.6752 113.421 88.5926C114.004 90.4352 114.361 92.3619 114.444 94.2926C114.552 96.8459 114.241 99.4525 113.368 101.847C112.812 103.385 112.085 104.863 111.213 106.097C110.738 106.767 110.241 107.418 109.769 107.925C108.674 109.119 107.435 110.185 106.055 111.039C104.614 111.933 103.072 112.625 101.561 113.073C100.592 113.362 99.6022 113.59 98.6022 113.722C97.5928 113.857 96.5875 113.918 95.5715 113.922C95.5488 113.922 95.5275 113.922 95.5048 113.922ZM73.9302 83.4152C73.7102 84.0312 73.5355 84.6659 73.3795 85.3019C73.2155 86.0606 73.0835 86.8219 73.0115 87.5499C73.0075 87.5885 73.0048 87.6299 73.0022 87.6472C72.9315 88.4579 72.9115 89.2726 72.9342 90.0899C72.9782 90.9299 73.0568 91.7645 73.1862 92.5965C73.3302 93.4512 73.5235 94.2912 73.7542 95.0979C73.7782 95.1819 73.8022 95.2672 73.8129 95.2992C74.1035 96.2592 74.4661 97.1912 74.8728 98.1072C75.3035 99.0392 75.7928 99.9379 76.2608 100.709C76.8555 101.659 77.5062 102.567 78.1355 103.335C78.8088 104.15 79.5328 104.911 80.1995 105.561C80.2702 105.626 80.3435 105.695 80.3555 105.705C80.4235 105.769 80.4929 105.834 80.4955 105.834C81.2809 106.562 82.1208 107.227 82.8888 107.781C83.7875 108.407 84.7182 108.978 85.6822 109.491C86.5755 109.951 87.4915 110.354 88.4328 110.711C89.3422 111.039 90.2622 111.309 91.2022 111.531C92.0928 111.722 92.9835 111.861 93.7702 111.947C94.6342 112.021 95.4982 112.047 96.3649 112.03C97.1622 111.994 97.9528 111.918 98.7435 111.801C99.4515 111.675 100.146 111.518 100.837 111.327C100.902 111.309 100.966 111.291 100.99 111.283C101.661 111.083 102.318 110.835 102.964 110.557C103.63 110.253 104.276 109.918 104.905 109.541C105.541 109.137 106.153 108.703 106.733 108.235C107.236 107.81 107.716 107.365 108.164 106.894L108.325 106.721C108.714 106.278 109.096 105.825 109.426 105.37C109.444 105.345 109.461 105.321 109.475 105.298L109.482 105.289C109.538 105.21 109.593 105.13 109.649 105.049C110.016 104.506 110.352 103.947 110.66 103.37C110.985 102.726 111.284 102.07 111.532 101.402C111.549 101.355 111.565 101.309 111.573 101.289C111.578 101.274 111.582 101.262 111.588 101.247L111.59 101.235C111.804 100.618 111.986 99.9939 112.133 99.3605C112.308 98.5592 112.437 97.7566 112.504 97.0619C112.569 96.2779 112.591 95.5019 112.578 94.7192C112.547 93.8139 112.457 92.9179 112.325 92.0699C112.322 92.0512 112.317 92.0339 112.314 92.0139L112.311 91.9965C112.155 91.1179 111.942 90.2619 111.705 89.4019C111.409 88.4472 111.052 87.5246 110.657 86.6072C110.261 85.7459 109.813 84.9152 109.333 84.0979C109.326 84.0859 109.318 84.0739 109.309 84.0592C109.235 83.9432 109.164 83.8259 109.09 83.7085C108.545 82.8499 107.938 82.0272 107.377 81.3392C106.677 80.4925 105.926 79.6992 105.133 78.9432C104.288 78.1739 103.414 77.4539 102.541 76.8326C101.628 76.1992 100.682 75.6206 99.8061 75.1659C98.9341 74.7126 98.0382 74.3139 97.1182 73.9712C96.2155 73.6406 95.2902 73.3672 94.3528 73.1459C93.6328 72.9872 92.9035 72.8646 92.1742 72.7712C91.9902 72.7499 91.8088 72.7299 91.7448 72.7232C90.9248 72.6499 90.1075 72.6219 89.2849 72.6352C88.4115 72.6659 87.5475 72.7499 86.6835 72.8819C85.9275 73.0219 85.1849 73.1952 84.4462 73.4085C83.7875 73.6165 83.1462 73.8565 82.5115 74.1272C81.8462 74.4285 81.2022 74.7685 80.5862 75.1419C79.9515 75.5405 79.3489 75.9779 78.7622 76.4486C78.2182 76.9139 77.7075 77.4005 77.2155 77.9165C76.7862 78.3992 76.3782 78.8966 76.0009 79.4179C75.5875 80.0152 75.2008 80.6272 74.8728 81.2539C74.8475 81.3019 74.8208 81.3512 74.7968 81.3979C74.5155 81.9606 74.2702 82.5392 74.0355 83.1232C74.0235 83.1579 74.0102 83.1925 73.9982 83.2245C73.9955 83.2285 73.9955 83.2339 73.9955 83.2312C73.9715 83.2992 73.9475 83.3686 73.9302 83.4152Z" fill="black"/>
<path d="M34.2883 154.717C32.0496 154.533 29.783 153.965 27.9443 152.618C24.0883 149.586 18.7723 141.443 27.2657 140.939C31.4537 140.385 35.679 139.861 39.6763 138.421C44.043 136.84 48.1217 134.678 51.9297 132.162C57.183 128.564 62.2017 123.795 64.4603 117.751C65.4203 115.289 65.1897 112.346 63.295 110.403C62.0617 108.773 59.6976 108.678 57.8803 108.857C44.3683 109.936 30.9177 111.654 17.3763 112.351C11.8737 112.509 -2.6317 113.796 0.416304 104.585C0.841637 103.516 1.52435 102.555 2.19768 101.63C4.63368 98.2915 7.27901 95.0475 10.395 92.3435C17.151 86.2475 26.4217 83.9541 35.3457 84.0275C37.2217 83.9795 39.1043 84.0701 40.9856 84.1581C44.4643 84.3235 47.9403 84.4928 51.3776 83.7875C56.8803 82.7235 61.8323 79.9648 66.9576 77.8128C69.9016 76.6035 72.6563 75.4848 75.7083 74.8288C76.7443 74.6475 77.8603 74.3595 78.895 74.6648C79.9603 75.1688 79.3776 76.7622 78.2443 76.4342C74.171 76.6155 70.5044 78.4715 66.803 79.9301C60.9777 82.4781 55.191 85.5528 48.7457 86.0648C46.1537 86.2915 43.559 86.1675 40.9644 86.0421C39.0524 85.9515 37.1377 85.8595 35.227 85.9102C26.791 85.8635 18.023 88.0128 11.6683 93.7262C8.39366 96.6222 5.60697 100.022 3.11363 103.598C-0.702366 108.928 4.76032 110.229 9.13766 110.527C21.5897 110.841 34.0043 109.069 46.3963 108.009C49.6563 107.686 52.9217 107.367 56.1897 107.091C58.3337 106.913 60.7577 106.65 62.7403 107.601C69.2003 111.478 67.0363 118.849 63.3177 123.881C57.6043 131.81 48.8137 137.103 39.743 140.379C36.4897 141.515 33.087 142.058 29.687 142.511C28.0737 142.859 26.159 142.641 24.771 143.622C23.951 145.581 26.4976 148.254 27.591 149.747C31.5563 154.234 38.7604 152.927 44.1004 152.503C48.6204 151.847 53.247 150.735 57.5377 149.274C61.8923 147.686 65.979 145.478 70.2004 143.589C74.1684 141.713 78.551 140.936 82.467 138.954C92.3777 133.7 100.314 124.95 105.432 115.051C106.247 113.458 106.978 111.607 107.335 109.899C107.432 109.191 107.602 108.195 108.543 108.322C109.043 108.394 109.432 108.881 109.347 109.388C109.3 109.66 109.248 109.929 109.198 110.173C108.788 112.19 108.015 114.102 107.095 115.93C103.582 122.917 98.583 129.078 92.7163 134.191C89.155 137.351 85.1177 140.01 80.7043 141.803C76.751 143.217 72.6897 144.347 68.9257 146.237C59.239 151.245 48.5257 154.826 37.571 154.826C36.479 154.826 35.3856 154.79 34.2883 154.717Z" fill="black"/>
<path d="M30.3587 129.905C24.9841 128.711 22.9467 123.459 26.5574 119.181C28.2587 117.263 30.7094 116.313 33.1547 115.748C35.712 115.125 38.3241 115.199 40.9361 115.272C43.5454 115.345 46.1574 115.42 48.7174 114.803C51.2387 114.323 53.7747 113.285 55.8387 111.833C58.276 110.349 60.6827 107.201 63.8307 108.111C64.6601 108.604 64.2814 109.875 63.3481 109.865C63.0254 109.813 62.7174 109.78 62.3934 109.863C60.788 110.215 59.596 111.459 58.3014 112.387C56.068 114.091 53.5787 115.517 50.8481 116.232C47.7907 117.257 44.5494 117.199 41.3201 117.14C37.1614 117.064 33.0254 116.988 29.3454 119.24C26.6774 120.78 25.412 125.047 28.3134 126.993C30.5187 128.383 33.2347 128.657 35.7561 128.557C43.3574 128.26 52.5214 121.955 59.8534 124.616C60.9694 125.103 60.2667 126.821 59.1214 126.352C57.1307 125.471 54.8867 125.825 52.8281 126.215C46.7894 127.337 40.8281 130.471 34.6667 130.471C33.2427 130.471 31.8081 130.304 30.3587 129.905Z" fill="black"/>
<path d="M90.4989 91.5601C88.6949 91.5534 87.5615 89.4334 88.4895 87.9188C89.0935 86.4841 91.7882 85.8201 92.3002 87.6214C94.0189 88.9094 92.7122 91.5801 90.7855 91.5801C90.6922 91.5801 90.5949 91.5748 90.4989 91.5601Z" fill="black"/>
<path d="M52.2758 205.219C34.0958 199.592 45.4171 186.544 52.4984 176.611C57.7584 168.139 61.1518 158.512 62.5118 148.691C62.5318 148.04 63.1664 147.495 63.8091 147.741C64.8971 148.2 64.1838 149.533 64.1598 150.38C63.7411 153.572 62.8798 156.887 61.9838 159.915C60.2011 165.961 57.7024 171.711 54.4717 177.011C51.0544 182.596 45.8211 187.443 44.4958 194.076C42.1371 205.449 67.6571 206.805 74.0371 202.397C83.2278 195.183 78.9131 171.936 77.2558 161.596C76.1465 155.871 75.2477 150.031 73.4437 144.479C72.7517 143.363 74.4184 142.273 75.0744 143.501C75.6104 144.76 75.9411 146.111 76.2491 147.328C79.2477 161.283 85.1624 186.933 78.6504 199.777C76.9331 203.291 73.4758 205.491 69.6651 206.012C67.2144 206.369 64.7104 206.588 62.2064 206.588C58.8424 206.588 55.4851 206.193 52.2758 205.219Z" fill="black"/>
<path d="M88.3597 195.215C84.9424 194.892 82.2424 192.811 80.825 189.767C80.4997 189.105 80.0344 188.461 79.909 187.729C79.8344 186.721 81.2904 186.341 81.709 187.264C82.7397 189.708 84.2277 192.3 86.9571 193.005C92.9144 194.571 99.0144 191.636 104.141 188.895C106.27 187.615 108.469 186.3 110.148 184.447C113.736 179.655 112.228 173.109 109.436 168.331C106.66 163.535 103.741 158.801 100.481 154.317C98.1064 151.12 95.5317 148.107 93.2157 144.92C92.2811 143.541 86.9104 136.56 89.5544 135.836C90.2517 135.713 90.6531 136.316 90.7371 136.932C91.5144 139.556 93.329 141.767 94.853 143.975C98.5837 148.983 102.738 153.7 105.977 159.053C109.589 164.967 114.285 170.937 114.154 178.205C113.998 184.599 110.142 187.705 104.97 190.581C100.478 193.017 95.4997 195.328 90.3157 195.328C89.6664 195.328 89.0131 195.293 88.3597 195.215Z" fill="black"/>
<path d="M93.8659 205.97C91.5085 205.821 88.8699 204.025 88.9019 201.474C89.1312 199.67 89.9539 198.09 90.6006 196.426C90.9619 195.692 91.0792 194.794 91.6312 194.172C92.5539 193.377 93.7965 194.73 92.9525 195.574C92.2912 197.677 90.9725 199.65 90.7965 201.864C93.5672 207.182 101.006 201.937 104.263 199.574C108.283 196.57 112.006 193.222 115.625 189.793C120.591 185.281 124.461 180.68 124.642 173.693C124.674 172.945 124.419 172.034 125.085 171.484C125.531 171.11 126.111 171.148 126.651 171.186C127.875 171.305 129.102 171.297 130.326 171.168C134.197 170.656 137.981 169.312 141.577 167.929C144.681 166.702 147.739 165.3 150.442 163.32C154.966 159.761 159.385 154.534 160.326 148.724C160.701 147.257 159.95 145.11 161.637 144.308C162.727 143.881 163.959 144.197 165.102 144.221C166.906 144.364 168.725 144.366 170.526 144.156C175.434 143.57 179.741 140.805 183.63 137.985C187.987 134.721 192.266 131.094 195.429 126.637C195.781 125.817 194.689 125.276 194.19 124.936C192.963 124.19 191.674 123.574 190.371 122.984C184.995 120.509 179.434 118.169 174.795 114.424C169.395 109.79 165.171 103.805 161.71 97.6436C157.673 90.3036 154.674 82.2303 148.682 76.1916C141.214 68.6329 130.769 61.9236 120.638 58.9369C107.203 54.8583 92.1832 56.1409 79.7859 62.7209C74.2192 65.7729 69.4979 70.0449 65.2085 74.6689C63.2459 76.7662 61.3605 78.7862 59.8552 81.1289C59.6125 81.5276 59.3872 81.9343 59.1779 82.3503C58.6112 83.4396 56.9446 82.5662 57.5099 81.4689C58.4766 79.5596 59.8139 77.8676 61.2139 76.2596C71.2672 64.4022 82.4779 56.8436 98.2006 55.1382C112.085 53.3142 126.299 57.2863 137.834 65.0636C143.026 68.3783 147.921 72.2529 151.911 76.9703C156.806 82.6663 159.482 89.5903 162.987 96.0729C166.083 101.701 169.778 107.052 174.385 111.548C178.118 115.134 182.842 117.404 187.475 119.594C190.602 121.209 194.231 122.174 196.809 124.646C198.586 127.028 195.73 129.346 194.266 131.042C192.193 133.309 189.967 135.444 187.549 137.341C182.619 141.213 177.238 145.181 170.862 146.009C169.093 146.3 167.315 146.205 165.543 146.109C164.501 146.053 163.458 145.996 162.419 146.021C162.469 151.249 160.094 156.057 156.674 159.902C153.047 164.544 147.841 167.586 142.406 169.62C137.339 171.513 132.013 173.588 126.507 173.065C126.642 181.414 121.845 186.76 116.029 191.996C110.937 196.532 101.565 205.99 94.4259 205.99C94.2379 205.99 94.0512 205.985 93.8659 205.97Z" fill="black"/>
<path d="M139.833 67.6848C139.724 67.1154 140.145 66.6301 140.578 66.5781C142.597 66.2341 144.641 66.0301 146.618 65.7808C150.05 65.3208 153.465 64.7914 156.89 64.2901C159.142 63.9741 161.506 63.6101 163.296 62.0874C168.601 57.6541 168.792 49.8261 168.98 43.5035C168.95 40.3741 168.977 32.0768 166.894 29.9594L166.912 29.9395C164.397 30.7528 162.517 36.7301 160.978 38.9848C158.041 43.9368 154.586 49.2328 149.052 51.4835C146.29 52.6928 143.297 53.1061 140.313 53.2768C139.37 53.3341 138.25 53.1408 137.677 52.3074C135.937 49.0061 140.788 44.4848 142.708 42.0368C145.593 38.7341 148.58 35.6554 150.217 31.5901C152.79 25.1421 149.781 17.9581 144.92 13.4781C140.494 9.27546 135.592 5.74744 130.045 3.28477C128.836 2.82077 127.624 2.3528 126.385 1.9808C126.033 1.90213 125.585 1.76744 125.277 1.99278C123.59 4.20344 125.724 11.1621 126.294 13.8794C127.313 17.8208 128.182 21.8595 128.077 25.9528C128.03 28.8061 127.453 31.5968 125.638 33.7808C122.993 36.8621 119.614 35.3928 118.352 31.9341C115.389 24.2781 116.677 15.0248 111.485 8.22748C105.642 0.756811 94.8649 2.3528 87.1489 5.68614C78.7009 9.23547 72.9462 16.7581 68.2982 24.3568C65.6649 28.6034 63.4729 33.0368 61.2676 37.5061C60.4289 39.3275 59.3556 41.0701 58.7982 43.0061C59.8476 42.7635 60.7635 42.3435 61.6822 41.9728C74.8609 35.9515 99.2489 36.0394 101.246 54.4714C101.317 55.6808 99.4596 55.8328 99.3663 54.5941C98.9943 48.9128 94.9156 44.1715 89.7262 42.1475C81.1782 39.1261 71.3382 39.9781 63.0676 43.4314C62.6022 43.6181 62.3249 43.7434 61.9636 43.8874C60.5409 44.3568 58.8036 45.5181 57.3862 44.5461C55.8222 43.0914 58.3743 39.4515 58.9969 37.8581C61.5276 32.7208 64.0582 27.5341 67.1209 22.6941C71.3875 15.8501 76.5009 9.15012 83.7316 5.26745C90.9236 1.61279 99.9436 -0.873871 107.596 2.7448C113.862 5.6088 116.466 12.4715 117.502 18.8581C118.396 22.1901 118.697 32.5982 122.25 33.6022C124.87 33.3075 125.697 30.0181 126.06 27.8248C127.081 19.7075 122.868 12.1368 122.782 4.10743C122.76 0.551426 124.885 -0.917894 128.182 0.587439C132.74 2.07411 136.877 4.6021 140.71 7.44877C143.698 9.68877 146.609 12.1661 148.913 15.1208C154.464 22.0474 154.334 31.2048 148.661 37.9195C147.016 40.5755 138.152 48.6581 139.325 51.2968L139.322 51.3088C141.53 51.5515 143.821 51.0475 145.98 50.5728C150.222 49.5461 153.693 46.5141 156.117 43.0261C158.653 39.7181 160.408 36.0341 162.285 32.4341C163.298 30.7421 164.344 28.6515 166.397 28.1141C168.057 27.7541 169.193 29.3795 169.516 30.8115C170.825 35.0341 170.88 39.5888 170.853 43.8674C170.718 51.2408 170.016 60.3421 163.052 64.5208C161.061 65.6834 158.698 65.9248 156.46 66.2555C154.185 66.5941 151.913 66.9314 149.64 67.2648C147.449 67.5821 145.248 67.8341 143.173 68.0995C142.854 68.0888 142.465 68.1794 142.061 68.2674C141.677 68.3528 141.28 68.4395 140.925 68.4395C140.426 68.4395 140.01 68.2674 139.833 67.6848Z" fill="black"/>
<path d="M148.274 182.409C145.95 178.965 143.703 175.471 141.424 171.998C141.003 171.202 140.236 170.519 140.043 169.635C140.039 169.126 140.428 168.678 140.954 168.663C141.782 168.649 142.004 169.599 142.45 170.127C144.927 173.897 147.366 177.689 149.884 181.431C150.319 182.159 149.688 182.859 149.039 182.859C148.758 182.859 148.474 182.726 148.274 182.409Z" fill="black"/>
<path d="M169.913 162.339C166.89 159.384 163.338 156.948 160.281 154.155C159.803 153.685 160.055 152.787 160.702 152.616C161.595 152.379 161.962 153.325 162.523 153.636C165.49 156.157 168.481 158.329 171.222 160.983C171.898 161.653 171.277 162.608 170.547 162.609C170.334 162.609 170.114 162.529 169.913 162.339Z" fill="black"/>
<path d="M122.983 243.497C117.163 243.374 112.906 239.836 115.735 233.816C117.787 228.541 120.579 223.596 123.179 218.578C128.74 208.782 133.139 198.302 139.224 188.817C144.624 180.913 146.305 183.089 153.393 179.121C156.979 177.033 160.08 174.466 162.95 171.545C165.826 168.625 168.114 165.497 170.095 161.982C171.889 159.974 174.552 159.064 177.015 158.141C186.01 155.113 195.119 152.377 204.335 150.096C209.938 148.972 224.172 144.816 227.672 150.5C229.675 154.196 227.151 158.829 225.21 162.068C223.207 165.02 220.772 167.661 218.043 169.952C216.848 171.068 215.282 171.861 214.298 173.173L214.287 173.161C214.211 173.425 214.219 173.494 214.229 173.694C215.399 180.089 213.788 185.645 209.82 190.744C206.971 194.653 203.752 198.452 199.48 200.849C195.187 203.254 190.108 204.961 185.168 203.906C182.811 214.318 176.076 224.94 165.082 227.432C161.37 228.11 155.554 229.29 152.624 226.333C144.559 234.021 135.656 243.509 123.744 243.512C123.492 243.512 123.238 243.506 122.983 243.497ZM220.143 149.496C213.678 149.645 207.378 151.309 201.126 152.829C192.475 155.245 183.766 157.625 175.365 160.79C174.033 161.341 172.728 162.012 171.69 163.029C171.147 163.789 170.752 164.669 170.216 165.441C168.435 168.218 166.474 170.645 164.195 172.958C160.189 177.002 155.687 180.482 150.504 182.654C148.051 183.562 145.415 184.177 143.66 186.286C141.156 188.922 139.238 192.184 137.496 195.304C134.111 201.426 131.144 207.769 127.82 213.92C124.619 219.956 121.251 225.92 118.458 232.158C117.811 233.777 117.008 235.329 116.739 237.057C116.362 240.232 119.978 241.49 122.572 241.585C131.674 242.208 139.282 236.261 145.582 230.401C147.251 228.889 148.918 227.368 150.519 225.782C151.344 225.106 152.282 223.366 153.488 224.266C153.848 224.62 153.958 225.161 154.402 225.434C156.778 226.837 159.911 226.249 162.443 226.014C169.744 225.146 175.871 220.13 179.344 213.861C180.97 210.904 182.246 207.74 183.095 204.474C183.323 203.585 183.408 202.44 184.424 202.097C185.127 201.945 185.839 202.073 186.556 202.2C187.146 202.305 187.738 202.41 188.331 202.361C196.122 202.085 202.968 197.074 207.358 190.908C211.208 186.078 213.428 181.284 212.53 174.992C212.287 173.852 212.192 172.586 213.048 171.664C217.854 167.617 223.087 163.517 225.499 157.512C227.707 152.336 226.363 149.486 220.738 149.486C220.544 149.486 220.346 149.488 220.143 149.496Z" fill="black"/>
<path d="M195.661 246.006C190.314 236.7 183.336 228.605 177.033 219.977C176.144 218.773 178.053 217.582 178.648 219.008C184.976 227.606 191.966 235.792 197.298 245.08C197.702 245.813 197.07 246.482 196.434 246.482C196.145 246.482 195.854 246.342 195.661 246.006Z" fill="black"/>
<path d="M217.468 229.118C209.331 221.158 201.099 212.874 195.757 202.747C195.292 201.186 197.356 200.835 197.663 202.407C200.279 207.374 203.872 211.766 207.476 216.032C209.908 218.844 212.474 221.536 215.098 224.171C216.322 225.398 217.565 226.607 218.819 227.803C219.191 228.158 219.159 228.787 218.799 229.135C218.617 229.314 218.388 229.396 218.155 229.396C217.908 229.396 217.661 229.302 217.468 229.118Z" fill="black"/>
<path d="M182.306 306.368C178.257 306.419 174.508 303.235 174.537 299.064C174.444 295.706 176.098 292.67 177.332 289.644C179.978 283.486 182.414 277.244 184.664 270.931C186.974 264.664 188.961 258.266 191.657 252.148C192.746 249.796 193.928 247.444 195.553 245.412C195.862 245.03 196.437 244.94 196.844 245.239C197.257 245.536 197.357 246.142 197.052 246.552C194.182 250.294 192.518 254.78 190.873 259.154C188.568 265.435 186.442 271.786 184.049 278.036C182.458 282.191 180.825 286.335 179.05 290.415C177.853 293.422 176.03 296.527 176.502 299.864C177.036 303.686 181.325 305.086 184.678 304.316C187.35 303.783 189.725 302.383 191.95 300.86C196.045 298.175 198.266 293.656 200.337 289.38C200.669 288.766 200.736 287.928 201.36 287.518C201.864 287.194 202.49 287.415 202.829 287.864C207.84 295.947 221.545 289.911 227.408 285.576C232.317 281.794 234.237 275.62 235.4 269.772C235.825 267.46 235.166 265.551 238.405 266.356C247.45 268.011 258.113 261.066 263.028 253.83C265.637 249.278 266.47 243.731 266.022 238.558C265.798 237.26 265.762 235.968 267.138 235.32C270.31 233.942 273.686 232.6 275.845 229.746C278.709 226.082 279.965 221.463 281.254 217.071C281.697 215.142 282.694 212.998 281.289 211.339C277.822 208.352 270.112 209.718 265.833 210.268C255.952 212.028 246.373 215.203 237.025 218.787C230.717 221.256 224.066 223.988 219.428 229.024C219.226 229.274 219.009 229.519 218.669 229.564C217.888 229.722 217.252 228.7 217.768 228.079C219.454 225.996 221.625 224.371 223.894 222.972C231.49 218.268 240.124 215.563 248.54 212.716C256.137 210.376 289.149 200.176 283.137 217.319C281.717 222.207 280.312 227.382 276.99 231.306C274.672 234.306 271.04 235.555 267.777 237.151C268.504 243.684 267.605 250.863 263.625 256.274C257.548 263.698 247.396 270.084 237.512 268.106C237.309 270.544 236.645 273.08 235.938 275.344C235.938 275.342 235.938 275.342 235.938 275.339C234.454 280.979 230.974 286.095 225.797 288.93C219.077 292.711 208.162 296.944 202.074 290.098C200.417 293.58 198.641 297.086 195.994 299.938C192.361 303.323 187.662 306.371 182.541 306.371C182.462 306.371 182.384 306.371 182.306 306.368Z" fill="black"/>
<path d="M196.71 246.25C196.042 245.802 196.309 244.635 197.125 244.557C198.569 244.449 200.145 243.967 201.43 243.519C208.283 240.741 215.109 235.794 217.865 228.722C218.085 227.454 219.681 227.221 219.871 228.585C217.779 235.329 211.993 240.126 206.059 243.433C204.238 244.545 202.233 245.303 200.189 245.881C199.366 246.033 198.446 246.414 197.582 246.414C197.283 246.414 196.99 246.369 196.71 246.25Z" fill="black"/>
<path d="M323.037 419.592C322.445 419.234 322.284 418.578 322.24 417.937C322.196 416.793 322.285 415.645 322.305 414.5C322.376 411.934 322.462 409.366 322.484 406.798C322.273 398.32 321.754 389.674 319.206 381.59C316.424 373.085 311.192 365.665 304.622 359.681C298.566 354.1 291.208 350.589 282.966 349.958C276.621 349.201 270.041 348.751 263.741 349.063C258.561 349.348 253.395 349.973 248.2 349.924C236.448 349.664 222.763 347.721 215.609 337.361C208.127 326.3 207.649 311.792 210.493 299.133C211.005 296.98 211.656 294.86 212.452 292.793C212.628 292.043 213.395 291.246 214.165 291.849C215.005 292.538 214.082 293.462 213.913 294.24C212.226 298.874 211.357 303.738 210.929 308.621C210.247 317.817 211.641 327.436 216.499 335.337C220.324 341.396 226.899 345.04 233.797 346.45C243.585 348.744 253.62 348.002 263.51 347.194C269.197 346.896 274.901 347.209 280.56 347.799C285.84 348.303 291.196 349.072 295.991 351.47C307.112 357.204 315.86 367.481 320.331 379.101C324.68 391.331 324.523 404.598 324.109 417.396C327.196 412.792 327.728 407.032 328.249 401.65C328.29 400.542 328.246 398.177 329.994 398.934C331.024 399.802 331.144 401.36 331.617 402.561C332.432 405.073 333.146 407.58 334.206 409.993C338.953 401.088 347.432 395.544 357.019 401.374C354.249 397.913 351.456 394.474 348.878 390.866C347.941 389.569 346.86 388.234 346.715 386.582C346.931 381.368 353.941 384.813 356.673 385.88C352.193 381.341 348.321 375.926 346.943 369.604C345.083 359.726 347.182 349.242 351.66 340.336C353.23 337.258 355.339 334.505 357.576 331.885C361.965 326.26 367.612 321.904 374.991 321.638C379.313 321.942 381.285 328.304 382.017 331.881C383.944 341.084 379.633 350.077 373.756 356.941C382.057 351.869 386.647 342.592 389.341 333.574C389.672 332.432 391.471 332.869 391.153 334.099C389.075 341.171 385.836 348.196 380.76 353.596C378.798 355.536 374.868 359.726 371.91 359.181C369.678 358.144 372.162 356.062 372.973 354.902C375.43 351.713 377.802 348.41 379.117 344.57C381.408 338.073 381.279 329.548 376.481 324.232C375.381 323.027 373.673 323.709 372.297 323.884C369.113 324.476 366.162 325.986 363.717 328.092C360.592 330.985 357.997 334.194 355.496 337.589C352.468 342.009 350.524 347.16 349.322 352.29C347.434 360.8 347.381 370.282 352.401 377.709C354.521 380.948 357.194 383.75 359.889 386.509C360.366 387.016 361.108 387.78 360.66 388.521C360.229 389.272 359.287 389.028 358.648 388.721C356.717 388.149 349.927 384.407 348.597 386.129C348.547 386.879 348.921 387.605 349.317 388.22C350.266 389.614 351.283 390.966 352.292 392.32C354.451 395.225 356.771 398.012 359.008 400.858C359.527 401.59 360.223 402.265 360.492 403.134C360.771 404.356 359.42 404.804 358.487 404.23C357.207 403.614 355.968 402.904 354.67 402.32C352.384 401.093 349.672 400.452 347.116 401.029C341.729 402.126 338.212 406.693 335.65 411.205C334.292 413.026 332.757 411.914 332.177 410.074C331.348 407.934 330.652 405.744 329.96 403.558C329.577 407.448 328.973 411.354 327.504 414.998C326.868 416.448 325.62 419.73 323.72 419.73C323.503 419.73 323.275 419.686 323.037 419.592Z" fill="black"/>
<path d="M424.049 374.9C423.205 374.332 423.083 373.265 423.048 372.328C422.969 371.054 422.886 369.782 422.789 368.512C422.26 362.476 421.763 356.436 420.36 350.534C417.659 338.364 409.088 324.017 397.212 319.112C399.702 323.782 402.32 328.421 404.117 333.414C406.68 341.01 407.593 349.046 406.829 357.004C406.596 359.018 406.288 361.077 405.6 362.994C404.873 364.798 403.011 369.18 400.631 367.062C400.411 366.834 400.212 366.296 400.165 366.032C399.733 364.242 399.405 362.424 399.055 360.617C397.549 352.625 395.573 344.54 391.838 337.289C391.396 336.501 390.954 335.705 390.382 335.004C389.994 334.705 389.917 334.12 390.201 333.721C390.501 333.297 391.092 333.206 391.513 333.497C394.319 336.765 395.631 341.078 397.121 345.061C399.409 351.781 400.542 358.708 401.994 365.604L401.997 365.601C404.715 362.294 404.909 357.685 405.192 353.597C405.453 344.278 403.541 334.824 399.052 326.641C398.021 324.617 396.981 322.605 395.936 320.69C395.591 320.022 395.157 319.425 394.989 318.693C394.726 317.196 396.393 316.762 397.537 317.246C408.221 321.337 416.183 332.732 420.093 343.105C423.78 352.816 424.12 363.136 425.082 373.309C429.554 371.238 431.9 363.334 433.412 358.901C436.79 348.113 437.087 336.366 434.648 325.428C433.253 319.584 430.842 313.96 427.261 309.157C422.417 302.946 416.204 297.614 409.697 293.289C406.719 291.452 403.502 290.242 400.256 289.042C398.914 288.406 396.255 288.33 396.46 286.336C397.121 284.289 402.235 284.289 404.109 284.017C411.34 283.733 418.74 284.834 425.425 287.665C434.987 291.95 442.612 299.921 447.963 308.782C452.76 317.114 454.332 326.741 455.159 336.197C461.595 326.172 466.943 313.908 466.029 301.789C464.539 285.981 453.14 271.609 437.877 267.052C429.265 264.334 420.119 265.265 411.471 267.301C406.265 268.449 401.125 269.858 396.004 271.34C394.216 271.861 392.43 272.4 390.644 272.936C389.613 273.178 388.533 273.825 387.466 273.474C383.138 270.704 399.748 261.793 401.836 260.109C405.551 257.72 409.325 255.42 413.328 253.542C425.432 247.68 439.444 249.4 452.069 252.53C465.077 255.997 478.237 259.032 490.921 263.58C498.784 266.341 506.267 270.104 514.071 273.005C511.537 267.878 507.54 263.638 503.952 259.248C498.901 253.318 493.463 247.809 487.832 242.453C477.605 232.637 465.979 223.722 452.288 219.482C443.625 216.51 434.225 218.689 425.981 221.928C420.304 224.092 414.997 226.736 409.955 230.036C404.491 233.67 399.508 237.63 394.457 241.762C392.888 243.045 391.321 244.336 389.753 245.621C388.307 246.62 387.033 248.397 385.15 248.398C380.837 247.065 387.376 238.348 388.685 236.172C390.969 232.701 393.216 229.208 395.491 225.729C402.657 213.813 415.073 205.364 428.727 202.837C440.449 201 452.484 203.489 463.384 207.768C469.466 210.181 475.319 213.168 480.885 216.612C486.653 220.193 492.187 224.097 498.169 227.249C500.907 228.692 503.726 229.996 506.494 231.246C509.838 232.554 513.044 234.678 516.591 235.272C516.297 232.617 514.897 230.314 513.871 227.91C512.271 224.577 510.417 221.368 508.413 218.258C496.515 200.257 479.894 185.426 461.05 175.022C452.18 170.225 442.391 167.004 432.355 166.073C420.956 165.238 409.333 165.704 398.185 168.137C384.627 171.244 371.348 179.793 366.58 193.372C361.079 209.486 361.564 226.968 363.664 243.636C363.811 244.55 363.989 245.464 364.18 246.372C364.283 246.874 363.899 247.376 363.409 247.458C362.888 247.546 362.428 247.189 362.322 246.688C361.816 244.357 361.491 241.946 361.268 239.589C360.012 227.152 359.734 214.442 362.249 202.14C363.654 194.708 366.317 187.426 371.205 181.558C380.35 170.942 394.311 165.894 407.969 164.609C421.092 163.342 434.673 163.106 447.355 167.182C471.38 174.937 495.392 195.484 509.373 216.286C512.764 221.409 515.791 226.832 517.911 232.608C518.404 233.966 519.07 236.028 517.55 236.924C515.417 238.125 508.176 233.826 505.704 232.953C492.007 227.368 480.709 217.388 467.197 211.425C451.987 204.561 433.625 200.676 417.966 208.23C406.929 213.334 400.856 220.229 394.673 230.432C392.501 233.817 390.233 237.176 388.099 240.573C387.063 242.409 385.756 244.272 385.609 246.426C397.784 236.941 409.521 225.942 424.243 220.586C432.291 217.414 441.163 214.885 449.813 216.878C466.533 220.954 480.222 232.248 492.238 244.084C498.464 250.134 504.355 256.528 509.777 263.312C511.484 265.752 516.391 271.137 515.964 273.834C515.217 275.856 512.697 274.558 511.311 274.02C501.523 269.837 491.603 265.413 481.415 262.384C468.776 258.9 456.064 255.081 443.206 252.577C433.153 250.829 422.461 250.932 413.235 255.666C408.915 257.764 404.92 260.384 400.882 262.964C396.858 265.676 392.597 267.954 389.224 271.401C396.349 269.232 403.507 267.149 410.78 265.529C421.332 262.929 432.797 262.282 442.897 266.917C457.039 273.05 467.04 287.472 467.988 302.829C468.412 311.705 465.645 320.385 461.768 328.274C460.608 330.664 459.389 333.077 457.996 335.333C457.223 336.498 456.555 337.896 455.301 338.609C454.229 339.122 453.377 338.182 453.352 337.136C452.224 322.705 449.453 310.988 439.227 300.2C434.629 295.312 429.246 290.978 422.884 288.664C415.257 286.085 406.982 284.916 399.078 286.653C402.765 287.912 406.472 289.261 409.864 291.197C416.833 295.578 423.193 301.118 428.38 307.521C436.259 317.692 438.575 330.981 438.065 343.57C437.576 352.096 435.468 360.593 431.782 368.301C430.702 370.394 427.912 375.15 425.119 375.15C424.761 375.15 424.404 375.072 424.049 374.9Z" fill="black"/>
<path d="M319.786 304.385C305.985 303.208 293.031 297.189 281.241 290.272C273.767 285.885 266.338 281.367 259.377 276.192C258.965 275.883 258.912 275.264 259.225 274.869C259.553 274.461 260.14 274.409 260.549 274.72C261.565 275.487 262.598 276.228 263.54 276.895C276 285.232 288.812 293.485 302.957 298.645C302.948 298.64 302.938 298.639 302.928 298.633C302.957 298.645 302.986 298.655 303.018 298.668C303.026 298.669 303.036 298.672 303.044 298.675C318.445 304.347 334.804 304.904 347.516 293.167C357.001 285.08 366.179 276.52 373.418 266.341C370.141 268.623 366.944 271.161 363.101 272.421C360.141 273.555 356.433 272.977 358.579 269.08C360.099 266.529 362.097 264.291 363.06 261.451C365.793 254.191 362.662 250.377 356.251 247.177C336.792 237.771 312.732 235.717 291.585 239.335C283.534 240.803 275.098 242.375 267.905 246.375C267.481 246.647 267.136 247.124 266.57 246.923C262.585 244.74 277.484 240.515 278.885 240.123C283.796 238.787 288.809 237.859 293.832 237.073C313.197 234.157 333.448 236.035 351.757 243.072C360.6 246.668 369.066 251.079 364.834 262.071C364.126 264.007 363.101 265.776 361.913 267.451C361.147 268.632 360.193 269.633 359.833 271.003C364.68 271.079 369.105 266.863 372.973 264.353C373.948 263.761 374.98 262.596 376.209 262.979C377.389 263.609 376.588 265.041 376.037 265.849C374.466 268.231 372.686 270.476 370.906 272.701C364.726 280.429 357.341 287.165 349.902 293.593C342.412 300.687 333.269 304.525 323.157 304.525C322.046 304.525 320.922 304.479 319.786 304.385Z" fill="black"/>
<path d="M364.044 253.478C362.384 253.374 362.686 248.284 362.328 246.974C362.112 245.768 363.939 245.42 364.179 246.626C364.49 248.276 364.358 250.056 364.823 251.669C364.879 251.992 365.075 252.272 365.052 252.606C365.019 253.086 364.6 253.482 364.127 253.482C364.1 253.482 364.074 253.48 364.044 253.478Z" fill="black"/>
<path d="M288.884 430.834C288.298 430.488 288.096 429.695 287.862 429.132C286.593 426.482 285.528 423.492 283.513 421.311C277.694 415.703 268.192 415.451 261.265 418.988C260.288 419.48 259.478 420.315 258.437 420.66C257.297 420.824 256.928 419.662 257.432 418.783C261.008 411.464 264.926 404.22 267.385 396.448C270.738 386.099 273.14 375.052 271.705 364.162C270.976 358.911 269.318 353.923 267.01 349.176C266.848 348.827 266.653 348.471 266.653 348.075C266.724 347.006 268.229 346.918 268.493 347.858C275.201 361.014 275.193 374.815 271.548 388.856C269.174 398.904 264.917 408.316 260.182 417.444C267.661 413.459 277.825 413.746 284.326 419.483C286.854 421.759 288.002 425.074 289.452 428.063C290.845 421.339 290.132 414.135 287.628 407.802C286.957 406.25 286.362 404.656 285.489 403.203C284.524 402.099 284.954 400.506 286.594 401.119C289.326 402.458 292.198 403.386 295.062 404.38C298.184 405.388 301.209 406.838 304.43 407.467C302.58 403.503 299.441 400.179 297.434 396.292C290.216 383.796 290.79 373.038 297.204 360.395C298.07 358.75 299.318 357.298 301.045 356.535C301.494 356.231 302.126 356.327 302.413 356.811C302.685 357.262 302.522 357.898 302.036 358.134C299.165 359.367 298.156 362.73 297.049 365.308C294.606 371.128 293.224 377.554 294.568 383.823C295.498 388.423 297.522 392.884 299.924 396.834C300.966 398.522 302.065 400.176 303.198 401.807C304.173 403.503 308.086 407.69 305.429 409.163C303.377 409.78 301.316 408.443 299.368 407.915C295.576 406.507 291.68 405.308 287.941 403.798C290.632 409.275 292.1 415.403 292.034 421.416C291.985 423.071 291.885 430.98 289.481 430.98C289.294 430.98 289.097 430.934 288.884 430.834Z" fill="black"/>
<path d="M217.528 510.055C212.695 508.389 221.235 496.344 223.063 493.951C223.036 493.984 223.012 494.016 222.989 494.045C225.991 489.972 229.265 486.115 232.636 482.343C226.94 485.439 221.973 489.312 217.132 493.477C213.02 496.917 209.103 500.924 204.589 503.768C201.909 505.585 199.101 505.003 200.252 501.257C200.969 499.188 202.389 497.475 203.635 495.72C205.225 493.535 207.025 491.477 208.905 489.581C208.903 489.583 208.897 489.588 208.895 489.591C211.896 486.481 215.223 483.801 218.737 481.349C212.777 484.056 206.897 487.373 200.392 488.516C196.996 488.957 196.544 486.311 198.759 484.191C202.264 480.899 206.197 478.105 210.34 475.695C221.56 468.836 234.695 465.841 246.472 460.273C254.383 455.996 263.751 435.672 267.311 427.095C267.311 427.095 267.311 427.095 267.311 427.097C268.111 425.117 268.823 423.176 269.543 421.172C270.105 419.603 270.668 418.031 271.288 416.513C271.636 415.647 272.188 414.147 273.379 414.653C274.053 414.935 274.073 415.984 273.44 416.312C271.859 419.823 270.801 423.607 269.352 427.053C267.712 431.22 265.839 435.227 263.856 439.229C260.157 446.349 256.427 453.453 250.921 459.313C248.976 461.199 246.587 462.471 244.115 463.457C240.455 464.959 236.737 466.324 233.028 467.697C225.416 470.421 217.827 473.393 210.873 477.561C208.311 479.083 205.784 480.753 203.508 482.615C202.044 483.875 200.228 484.917 199.292 486.653C202.316 486.609 205.172 485.28 207.913 484.229C213.275 481.98 218.471 479.385 223.692 476.84C225.879 475.891 227.935 474.483 230.245 473.888C231.411 473.815 231.756 475.217 230.852 475.871C228.547 477.731 225.824 479.021 223.332 480.615C218.5 483.552 214.204 486.899 210.265 490.876C208.415 492.768 206.66 494.78 205.093 496.909C203.852 498.736 202.168 500.511 201.853 502.767C201.857 502.816 201.865 502.863 201.875 502.912C203.497 502.517 204.996 501.235 206.264 500.324C207.921 499.032 209.488 497.668 211.059 496.283C216.652 491.368 222.295 486.347 228.659 482.483C229.033 482.249 229.364 482.071 229.657 481.895C231.065 481.253 234.747 478.199 235.792 480.279C236.152 481.589 234.823 482.583 234.112 483.515C230.923 487.092 227.8 490.741 224.936 494.579C222.549 497.769 220.303 501.088 218.743 504.769C218.356 505.853 217.881 507.019 217.984 508.163C220.307 506.977 222.02 504.871 223.9 503.108C227.88 499.088 231.959 495.052 236.416 491.596C240.859 488.223 245.623 484.34 251.427 484.243C255.216 484.273 259.024 485.885 261.847 488.381C264.143 490.777 265.171 493.801 267.036 496.388C269.027 494.28 267.381 489.013 266.445 486.641C265.244 483.88 263.824 481.469 262.251 479.007C260.779 476.671 258.365 474.647 258.616 471.633C258.897 466.055 261.905 459.967 266.091 456.347C269.4 453.579 274.533 453.951 276.815 457.823C279.333 462.233 277.828 467.516 277.781 472.299C284.188 467.484 285.412 459.888 282.568 452.675C281.329 449.939 279.319 447.365 278.619 444.484C277.229 439.259 277.767 433.604 278.935 428.465C279.611 425.712 280.751 423.132 282.437 420.907C282.768 420.312 283.497 419.829 284.109 420.359C284.665 420.848 284.42 421.533 283.98 421.987C279.819 427.337 278.783 437.523 280.423 443.959C281.177 446.815 283.096 449.236 284.264 451.865C287.475 459.697 286.048 468.209 279.243 473.577C277.66 474.925 275.721 474.583 275.901 472.216C275.833 467.376 278.203 459.823 273.168 456.9C267.581 454.513 263.616 461.597 261.849 465.859C260.907 468.297 259.973 471.085 260.825 473.675C261.448 474.916 262.471 475.912 263.215 477.083C266.573 482.181 272.34 491.473 268.685 497.424C266.625 499.708 264.969 497.052 264.069 495.191C263.004 493.231 261.957 491.292 260.453 489.649C257.945 487.553 254.664 486.132 251.368 486.12C245.995 486.325 241.647 490.027 237.547 493.096C237.547 493.093 237.547 493.093 237.547 493.093C232.835 496.783 228.612 501.039 224.392 505.267C222.539 506.845 220.165 510.055 217.589 510.055C217.568 510.055 217.548 510.055 217.528 510.055Z" fill="black"/>
<path d="M307.749 526.513C305.756 524.073 306.092 520.36 306.033 517.435C306.229 505.156 312.808 494.227 319.4 484.296C309.46 491.985 302.501 502.543 296.416 513.364C292.765 520.181 290.105 516.441 290.993 510.576C291.767 500.217 296.776 490.732 303.639 483.143C299.333 486.788 287.136 499.82 282.328 499.951C278.811 499.169 283.295 493.06 283.985 491.175C286.064 486.947 288.901 483.133 292.203 479.786C297.74 473.829 304.821 469.773 311.665 465.531C319.065 460.669 326.756 455.057 330.244 446.618C333.804 436.418 333.479 425.44 332.668 414.873C332.653 413.375 332.247 411.928 332.685 410.58C333.233 409.728 334.677 410.291 334.391 411.339C334.408 413.716 334.66 416.085 334.82 418.454C335.175 422.976 335.169 427.276 334.879 431.732C334.492 437.241 333.877 442.659 331.821 447.725C326.375 460.097 313.521 466.282 302.787 473.322C297.064 477.296 291.853 482.129 287.992 487.931C286.067 491.155 284.152 494.489 282.896 498.028C289.447 494.595 294.501 488.878 299.957 483.985C304.128 480.293 308.028 476.02 312.971 473.367C313.795 473.027 314.708 473.835 314.363 474.693C314.12 475.3 313.597 475.753 313.168 476.233C307.621 481.635 301.984 486.949 298.22 493.781C295.544 498.396 293.745 503.515 293.096 508.809C292.896 510.948 292.387 512.954 293.008 514.986C294.844 512.76 296.053 510.087 297.591 507.651C299.955 503.651 302.491 499.7 305.296 496.001C309.615 490.325 314.796 485.263 320.561 481.072C321.173 480.641 322.167 480.529 322.553 481.309C322.969 482.377 322.084 483.388 321.619 484.286C315.765 493.265 309.744 502.56 308.215 513.358C308.004 515.012 307.893 516.728 307.901 518.343C307.991 520.612 307.8 523.143 309.036 525.143C310.084 524.032 310.529 522.321 311.127 520.993C312.108 518.482 313.015 515.937 314.076 513.457C316.128 508.584 318.556 503.852 321.52 499.465C326.489 491.716 333.684 484.996 342.596 482.193C349.357 480.129 356.723 479.533 363.648 481.127C362.103 474.596 352.661 468.95 346.559 467.258C339.845 465.624 336.909 466.851 336.525 458.384C336.408 452.867 340.743 442.881 345.404 439.839C348.613 437.756 353.237 438.36 355.891 441.086C358.427 443.59 358.784 447.361 359.757 450.601C360.22 452.18 360.515 454.284 362.375 452.34C364.115 450.516 364.916 448.017 364.94 445.54C365.045 440.463 362.348 435.836 358.357 432.865C354.664 430.351 350.764 429.156 349.039 424.576C347.739 421.471 346.995 418.024 347.313 414.651C348.121 410.225 349.355 405.292 350.38 400.849C350.792 399.733 352.537 400.22 352.169 401.443C351.188 405.253 350.523 409.145 349.512 412.952C348.617 416.636 349.357 420.423 350.772 423.844C351.839 426.631 354.239 428.376 356.816 429.66C360.235 431.511 363.151 434.289 364.992 437.731C367.689 442.969 367.804 450.808 362.612 454.54C358.309 456.865 357.964 450.42 357.073 447.777C356.116 443.068 353.212 439.619 348.089 440.673C343.203 441.912 339.047 452.021 338.504 456.68C338.305 459.027 338.347 461.636 339.791 463.548C340.613 464.361 341.884 464.309 342.947 464.557C347.281 465.266 351.501 466.693 355.229 469.044C359.019 471.469 362.747 474.483 364.811 478.561C365.769 480.284 366.108 483.751 363.119 482.931C352.852 480.796 341.389 482.817 333.076 489.373C324.644 495.983 319.249 505.898 315.223 515.592C314.397 517.613 313.672 519.669 312.869 521.694C312.123 523.365 311.063 527.062 309.109 527.062C308.699 527.062 308.245 526.899 307.749 526.513Z" fill="black"/>
<path d="M93.7701 111.945C92.9848 111.86 92.0928 111.72 91.2021 111.529C90.2621 111.306 89.3421 111.037 88.4341 110.709C87.4914 110.352 86.5754 109.95 85.6821 109.49C84.7181 108.976 83.7874 108.405 82.8901 107.779C82.1208 107.227 81.2808 106.56 80.4954 105.833C80.4928 105.833 80.4248 105.767 80.3554 105.704C80.3434 105.693 80.2701 105.625 80.1995 105.559C79.5341 104.911 78.8088 104.149 78.1355 103.333C77.5075 102.565 76.8555 101.657 76.2608 100.708C75.7928 99.9358 75.3034 99.0385 74.8728 98.1051C74.4661 97.1891 74.1047 96.2572 73.8127 95.2972C73.8034 95.2652 73.7781 95.1799 73.7541 95.0972C73.5247 94.2892 73.3301 93.4492 73.1861 92.5958C73.0568 91.7625 72.9781 90.9279 72.9341 90.0892C72.9128 89.2705 72.9315 88.4558 73.0021 87.6452C73.0048 87.6292 73.0074 87.5865 73.0127 87.5479C73.0834 86.8212 73.2154 86.0598 73.3794 85.3012C73.5367 84.6638 73.7101 84.0305 73.9301 83.4131C73.9475 83.3665 73.9728 83.2985 73.9968 83.2292C73.9968 83.2292 73.9968 83.2279 73.9995 83.2225C74.0115 83.1905 74.0235 83.1559 74.0355 83.1225C74.2701 82.5372 74.5155 81.9598 74.7968 81.3958C74.8221 81.3505 74.8488 81.3012 74.8728 81.2518C75.2008 80.6252 75.5874 80.0132 76.0008 79.4158C76.3781 78.8945 76.7874 78.3972 77.2154 77.9158C77.7074 77.3985 78.2168 76.9145 78.7594 76.4492C79.0101 76.3878 79.2061 76.2212 79.3234 76.0118C79.7314 75.7052 80.1528 75.4145 80.5861 75.1398C81.2034 74.7678 81.8474 74.4278 82.5127 74.1265C83.1461 73.8545 83.7874 73.6145 84.4461 73.4065C85.1861 73.1932 85.9274 73.0198 86.6834 72.8798C87.5474 72.7478 88.4114 72.6652 89.2861 72.6332C90.1088 72.6212 90.9261 72.6478 91.7461 72.7212C91.8087 72.7292 91.9901 72.7478 92.1741 72.7705C92.9034 72.8638 93.6328 72.9852 94.3528 73.1452C95.2901 73.3652 96.2154 73.6398 97.1181 73.9691C98.0394 74.3118 98.9354 74.7119 99.8061 75.1639C100.683 75.6199 101.627 76.1972 102.541 76.8318C103.414 77.4532 104.289 78.1731 105.133 78.9411C105.926 79.6971 106.678 80.4905 107.378 81.3372C107.938 82.0252 108.545 82.8478 109.091 83.7065C109.165 83.8252 109.235 83.9425 109.309 84.0572C109.318 84.0718 109.326 84.0838 109.334 84.0958C109.813 84.9145 110.261 85.7438 110.658 86.6051C111.051 87.5238 111.409 88.4465 111.705 89.4012C111.943 90.2598 112.155 91.1172 112.313 91.9958L112.315 92.0131C112.317 92.0318 112.322 92.0491 112.325 92.0691C112.457 92.9158 112.547 93.8119 112.579 94.7172C112.591 95.5012 112.57 96.2772 112.503 97.0598C112.437 97.7558 112.307 98.5585 112.134 99.3585C111.987 99.9932 111.803 100.617 111.59 101.233L111.587 101.246C111.583 101.261 111.578 101.273 111.573 101.288C111.566 101.306 111.549 101.353 111.531 101.4C111.285 102.068 110.986 102.724 110.659 103.368C110.351 103.945 110.017 104.504 109.649 105.048C109.593 105.128 109.539 105.209 109.482 105.288L109.475 105.297C109.461 105.319 109.443 105.344 109.426 105.368C109.095 105.824 108.714 106.276 108.325 106.72L108.163 106.893C107.715 107.362 107.235 107.808 106.734 108.235C106.154 108.703 105.542 109.136 104.905 109.538C104.277 109.916 103.63 110.252 102.965 110.554C102.318 110.834 101.662 111.081 100.991 111.282C100.966 111.289 100.903 111.306 100.837 111.326C100.146 111.517 99.4514 111.673 98.7434 111.799C97.9541 111.916 97.1634 111.992 96.3648 112.029C96.1968 112.032 96.0301 112.033 95.8621 112.033C95.1648 112.033 94.4674 112.005 93.7701 111.945ZM88.4901 87.9145C87.5621 89.4305 88.6955 91.5505 90.4995 91.5572C90.5955 91.5718 90.6928 91.5771 90.7861 91.5771C92.7128 91.5771 94.0195 88.9065 92.3021 87.6185C92.0821 86.8465 91.4621 86.5279 90.7767 86.5279C89.8634 86.5279 88.8354 87.0959 88.4901 87.9145Z" fill="white"/>
<path d="M27.5923 149.747C26.4977 148.254 23.9523 145.58 24.7723 143.622C26.1603 142.64 28.0737 142.858 29.687 142.511C33.087 142.058 36.4896 141.515 39.743 140.379C48.815 137.103 57.6043 131.808 63.3177 123.88C66.7057 119.295 68.8016 112.772 64.2683 108.719C64.2243 108.48 64.0843 108.258 63.8296 108.108C63.671 108.064 63.5136 108.028 63.3603 108.002C63.1643 107.864 62.9563 107.73 62.7403 107.599C60.7576 106.65 58.335 106.912 56.1897 107.091C52.9217 107.367 49.6563 107.686 46.3963 108.008C34.0056 109.068 21.5896 110.84 9.13764 110.527C4.76164 110.228 -0.702381 108.927 3.11362 103.598C5.60829 100.022 8.39367 96.6218 11.6697 93.7258C18.023 88.0125 26.7923 85.8631 35.227 85.9098C37.139 85.8578 39.0523 85.9511 40.9643 86.0417C43.559 86.1671 46.1536 86.2911 48.7456 86.0645C55.191 85.5525 60.9776 82.4778 66.8043 79.9298C69.731 78.7764 72.6376 77.3737 75.7389 76.7497C75.3963 77.1217 75.0683 77.5111 74.767 77.9204C74.191 78.7058 73.6656 79.5177 73.207 80.3804C73.2043 80.3844 73.1976 80.4017 73.1883 80.4191C73.1776 80.4391 73.1683 80.4564 73.159 80.4751C72.823 81.1244 72.503 81.8138 72.2483 82.5338C72.2403 82.5565 72.191 82.6911 72.143 82.8258C71.611 84.2698 71.2763 85.9071 71.1216 87.5564C70.8643 90.1978 71.171 93.0324 71.967 95.6884C72.1377 96.2537 72.331 96.8417 72.5483 97.4217C73.227 99.2351 74.1443 100.971 75.227 102.576C76.319 104.198 77.5963 105.712 79.031 107.039L79.2043 107.2C79.2883 107.279 79.467 107.443 79.647 107.602C82.5536 110.152 86.0337 112.128 89.7843 113.118C91.647 113.607 93.5763 113.923 95.5043 113.923C95.527 113.923 95.5483 113.923 95.571 113.923C96.587 113.918 97.5923 113.856 98.6016 113.722C99.6016 113.59 100.591 113.362 101.56 113.074C103.071 112.626 104.614 111.932 106.055 111.039C106.471 110.782 106.875 110.503 107.267 110.211C106.89 111.83 106.199 113.552 105.434 115.051C100.315 124.95 92.379 133.699 82.467 138.954C78.551 140.934 74.1696 141.712 70.2016 143.587C65.979 145.478 61.8936 147.686 57.5389 149.274C53.2483 150.735 48.6217 151.847 44.1003 152.503C41.875 152.679 39.3256 153.01 36.8216 153.01C33.319 153.01 29.9043 152.363 27.5923 149.747Z" fill="#F7AA0F"/>
<path d="M44.4972 194.076C45.8226 187.443 51.0558 182.596 54.4718 177.009C57.7038 171.711 60.2025 165.96 61.9852 159.915C62.8812 156.887 63.7425 153.572 64.1612 150.38C64.1785 149.815 64.5012 149.029 64.3892 148.436C65.9239 147.744 67.4358 147.007 68.9265 146.236C70.3705 145.511 71.8625 144.897 73.3718 144.336C73.3918 144.383 73.4159 144.432 73.4452 144.479C75.2492 150.029 76.1478 155.871 77.2572 161.596C78.9145 171.936 83.2292 195.183 74.0385 202.396C71.8705 203.895 67.4918 204.727 62.7492 204.727C53.5332 204.727 42.9399 201.584 44.4972 194.076Z" fill="#8B1510"/>
<path d="M86.957 193.004C84.2276 192.299 82.7396 189.707 81.7089 187.264C81.6583 187.151 81.5916 187.056 81.513 186.985C82.169 173.876 78.4369 157.496 76.2503 147.328C75.9569 146.175 75.6463 144.899 75.1543 143.697C76.9996 143.056 78.8649 142.461 80.7062 141.803C83.5969 140.628 86.3263 139.081 88.865 137.267C89.2263 139.58 92.5049 143.868 93.2169 144.919C95.5316 148.105 98.1076 151.119 100.482 154.316C103.742 158.8 106.66 163.535 109.436 168.329C112.229 173.108 113.737 179.653 110.148 184.447C108.469 186.299 106.27 187.613 104.141 188.895C100.008 191.105 95.2409 193.441 90.4249 193.441C89.2689 193.441 88.1103 193.307 86.957 193.004Z" fill="#8B1510"/>
<path d="M218.744 504.769C220.304 501.087 222.55 497.767 224.937 494.578C227.801 490.741 230.924 487.09 234.113 483.514C234.824 482.582 236.153 481.587 235.793 480.278C234.748 478.198 231.066 481.253 229.658 481.894C229.365 482.07 229.034 482.249 228.66 482.481C222.296 486.346 216.653 491.367 211.06 496.282C209.489 497.667 207.922 499.031 206.265 500.323C204.997 501.234 203.498 502.517 201.876 502.911C201.866 502.862 201.858 502.815 201.854 502.766C202.169 500.51 203.853 498.735 205.094 496.909C206.661 494.779 208.416 492.767 210.266 490.875C214.205 486.897 218.501 483.551 223.333 480.614C225.825 479.021 228.548 477.73 230.853 475.87C231.757 475.217 231.412 473.814 230.246 473.887C227.936 474.482 225.88 475.889 223.693 476.839C218.472 479.385 213.276 481.979 207.914 484.229C205.173 485.279 202.317 486.609 199.293 486.653C200.229 484.917 202.045 483.874 203.509 482.614C205.785 480.753 208.312 479.081 210.874 477.561C217.828 473.393 225.417 470.421 233.029 467.697C236.738 466.323 240.456 464.957 244.116 463.457C246.588 462.47 248.977 461.198 250.922 459.313C256.428 453.453 260.158 446.349 263.857 439.229C265.84 435.226 267.713 431.219 269.353 427.053C270.741 423.753 271.769 420.142 273.242 416.759C276.689 417.113 280.008 418.338 282.684 420.566C282.588 420.669 282.505 420.786 282.438 420.906C280.752 423.131 279.612 425.711 278.936 428.465C277.768 433.603 277.23 439.258 278.62 444.483C279.32 447.365 281.33 449.938 282.569 452.674C285.413 459.887 284.189 467.483 277.782 472.298C277.829 467.515 279.334 462.233 276.816 457.822C274.534 453.95 269.401 453.577 266.092 456.346C261.906 459.966 258.898 466.054 258.617 471.633C258.366 474.646 260.78 476.67 262.252 479.006C263.825 481.467 265.245 483.879 266.446 486.641C267.382 489.013 269.028 494.279 267.037 496.387C265.172 493.801 264.144 490.777 261.848 488.381C259.025 485.883 255.217 484.273 251.428 484.241C245.624 484.339 240.86 488.222 236.417 491.594C231.96 495.051 227.881 499.087 223.901 503.107C222.021 504.869 220.308 506.977 217.985 508.162C217.882 507.018 218.357 505.853 218.744 504.769Z" fill="#ED5720"/>
<path d="M307.9 518.343C307.894 516.727 308.003 515.011 308.214 513.359C309.743 502.559 315.766 493.264 321.618 484.285C322.083 483.388 322.97 482.376 322.554 481.309C322.166 480.528 321.172 480.641 320.56 481.072C314.796 485.263 309.614 490.325 305.296 496.001C302.491 499.7 299.955 503.651 297.59 507.651C296.052 510.087 294.843 512.759 293.008 514.987C292.386 512.955 292.895 510.948 293.096 508.808C293.744 503.513 295.543 498.395 298.219 493.781C301.984 486.949 307.622 481.635 313.168 476.232C313.596 475.753 314.12 475.3 314.363 474.693C314.708 473.833 313.795 473.025 312.97 473.367C308.027 476.02 304.128 480.293 299.958 483.985C294.5 488.877 289.446 494.593 282.896 498.028C284.151 494.488 286.066 491.155 287.992 487.931C291.852 482.129 297.064 477.295 302.787 473.323C313.52 466.283 326.374 460.096 331.82 447.725C333.876 442.659 334.491 437.241 334.878 431.731C335.17 427.276 335.174 422.975 334.819 418.455C334.678 416.341 334.462 414.229 334.406 412.112C334.816 412.036 335.24 411.752 335.651 411.204C338.212 406.692 341.727 402.124 347.116 401.028C348.187 400.785 349.286 400.759 350.368 400.899C349.344 405.329 348.118 410.241 347.312 414.651C346.995 418.023 347.739 421.469 349.039 424.576C350.764 429.156 354.663 430.351 358.358 432.864C362.347 435.836 365.044 440.463 364.939 445.539C364.915 448.016 364.115 450.516 362.374 452.339C360.514 454.283 360.22 452.18 359.758 450.601C358.783 447.36 358.426 443.591 355.89 441.087C353.236 438.36 348.612 437.755 345.403 439.839C340.743 442.881 336.408 452.865 336.526 458.383C336.91 466.851 339.844 465.624 346.559 467.259C352.662 468.951 362.103 474.595 363.647 481.125C356.722 479.532 349.356 480.129 342.596 482.193C333.683 484.996 326.49 491.715 321.52 499.465C318.556 503.852 316.127 508.583 314.076 513.457C313.014 515.936 312.108 518.483 311.127 520.993C310.53 522.32 310.084 524.031 309.036 525.143C307.8 523.143 307.991 520.612 307.9 518.343Z" fill="#ED5720"/>
<path d="M142.451 170.126C142.347 170.004 142.257 169.86 142.168 169.71C142.249 169.681 142.328 169.652 142.405 169.622C147.84 167.588 153.047 164.545 156.675 159.904C158.18 158.213 159.483 156.336 160.464 154.316C163.472 157.038 166.939 159.432 169.897 162.32C167.964 165.698 165.731 168.718 162.948 171.544C160.079 174.464 156.977 177.032 153.392 179.12C151.907 179.949 150.66 180.513 149.565 180.953C147.157 177.365 144.821 173.737 142.451 170.126Z" fill="#E5C0B7"/>
<path d="M178.648 219.009C178.577 218.839 178.487 218.707 178.387 218.606C181.728 214.345 183.992 209.099 185.167 203.905C188.731 204.666 192.368 203.99 195.732 202.649C195.739 202.681 195.749 202.715 195.759 202.75C201.1 212.877 209.332 221.16 217.468 229.121C217.525 229.174 217.584 229.218 217.647 229.254C214.761 236.042 208.111 240.811 201.431 243.518C200.145 243.966 198.569 244.449 197.125 244.557C197.083 244.561 197.044 244.566 197.007 244.578C191.715 235.497 184.861 227.453 178.648 219.009Z" fill="#E5C0B7"/>
<path d="M148.899 171.921C148.518 171.098 148.934 170.163 149.714 169.813C149.707 169.818 149.699 169.821 149.69 169.826C149.669 169.838 149.646 169.85 149.625 169.862C151.462 168.863 152.949 171.657 151.095 172.626C151.134 172.606 151.175 172.585 151.213 172.565C150.953 172.746 150.653 172.83 150.353 172.83C149.755 172.83 149.162 172.495 148.899 171.921Z" fill="black"/>
<path d="M156.859 170.059C156.827 169.23 157.511 168.426 158.364 168.426C159.219 168.426 159.963 169.052 159.997 169.931C160.029 170.762 159.348 171.564 158.492 171.564C157.635 171.564 156.893 170.938 156.859 170.059Z" fill="black"/>
<path d="M159.253 162.624C159.222 161.794 159.902 160.992 160.758 160.992C161.613 160.992 162.357 161.618 162.392 162.497C162.424 163.326 161.742 164.129 160.886 164.129C160.032 164.129 159.288 163.502 159.253 162.624Z" fill="black"/>
<path d="M184.789 219.722C183.874 219.64 183.161 218.694 183.415 217.784C183.949 215.796 186.791 216.525 186.495 218.366C186.369 219.137 185.721 219.73 184.947 219.73C184.895 219.73 184.842 219.728 184.789 219.722Z" fill="black"/>
<path d="M186.523 211.772C186.491 210.941 187.173 210.139 188.028 210.139C188.883 210.139 189.627 210.765 189.661 211.644C189.692 212.475 189.009 213.277 188.156 213.277C187.301 213.277 186.557 212.651 186.523 211.772Z" fill="black"/>
<path d="M194.396 210.143C194.364 209.314 195.046 208.511 195.901 208.511C196.756 208.511 197.5 209.138 197.534 210.016C197.566 210.846 196.885 211.648 196.029 211.648C195.172 211.648 194.43 211.022 194.396 210.143Z" fill="black"/>
<path d="M191.767 216.543C191.735 215.713 192.419 214.91 193.272 214.91C194.127 214.91 194.871 215.537 194.905 216.415C194.937 217.246 194.255 218.049 193.4 218.049C192.545 218.049 191.801 217.422 191.767 216.543Z" fill="black"/>
<path d="M188.751 225.552C188.719 224.723 189.4 223.92 190.256 223.92C191.114 223.92 191.855 224.547 191.89 225.425C191.922 226.255 191.238 227.059 190.384 227.059C189.527 227.059 188.786 226.432 188.751 225.552Z" fill="black"/>
<path d="M200.146 219.088C200.114 218.258 200.795 217.455 201.651 217.455C202.508 217.455 203.25 218.082 203.284 218.96C203.315 219.79 202.635 220.594 201.779 220.594C200.924 220.594 200.18 219.967 200.146 219.088Z" fill="black"/>
<path d="M195.384 224.473C195.352 223.644 196.035 222.841 196.889 222.841C197.744 222.841 198.488 223.468 198.521 224.346C198.553 225.176 197.871 225.979 197.016 225.979C196.16 225.979 195.417 225.352 195.384 224.473Z" fill="black"/>
<path d="M196.113 233.805C195.32 233.562 194.904 232.453 195.194 231.82C195.833 229.981 198.65 230.781 198.205 232.688C198.076 233.428 197.369 233.902 196.656 233.902C196.472 233.902 196.288 233.872 196.113 233.805Z" fill="black"/>
<path d="M201.614 227.71C201.582 226.88 202.264 226.077 203.12 226.077C203.977 226.077 204.718 226.704 204.753 227.583C204.784 228.412 204.104 229.215 203.248 229.215C202.393 229.215 201.649 228.588 201.614 227.71Z" fill="black"/>
<path d="M209.347 227.743C209.315 226.913 209.995 226.111 210.852 226.111C211.708 226.111 212.449 226.737 212.484 227.616C212.516 228.445 211.836 229.248 210.979 229.248C210.124 229.248 209.38 228.621 209.347 227.743Z" fill="black"/>
<path d="M205.317 234.27C205.285 233.439 205.968 232.637 206.823 232.637C207.679 232.637 208.422 233.263 208.455 234.142C208.487 234.973 207.804 235.775 206.95 235.775C206.094 235.775 205.352 235.149 205.317 234.27Z" fill="black"/>
<path d="M198.895 239.853C197.108 238.863 198.592 236.119 200.399 237.077C201.936 237.936 201.076 240.055 199.658 240.055C199.416 240.055 199.16 239.993 198.895 239.853Z" fill="black"/>
<path d="M137.834 65.0662C127.133 57.8502 114.119 53.9102 101.207 54.8368C101.242 54.7302 101.257 54.6075 101.249 54.4702C99.2514 36.0382 74.8634 35.9502 61.6848 41.9715C61.6754 41.9768 61.6647 41.9795 61.6554 41.9835C60.7474 42.3515 59.8394 42.7648 58.8008 43.0048C59.3594 41.0688 60.4314 39.3248 61.2714 37.5048C63.4768 33.0342 65.6674 28.6022 68.3008 24.3542C72.9501 16.7568 78.7048 9.23417 87.1514 5.68483C94.8674 2.3515 105.645 0.755509 111.489 8.22618C116.679 15.0235 115.393 24.2769 118.354 31.9329C119.618 35.3915 122.995 36.8609 125.642 33.7782C127.455 31.5955 128.033 28.8049 128.079 25.9502C128.185 21.8582 127.315 17.8182 126.298 13.8782C125.727 11.1609 123.593 4.20221 125.279 1.99154C125.587 1.76621 126.035 1.90083 126.389 1.9795C127.626 2.3515 128.838 2.8182 130.047 3.28353C135.594 5.7462 140.498 9.27283 144.923 13.4768C149.785 17.9555 152.793 25.1408 150.221 31.5875C148.582 35.6542 145.597 38.7329 142.71 42.0355C140.791 44.4835 135.939 49.0035 137.679 52.3062C138.253 53.1382 139.374 53.3315 140.317 53.2755C143.301 53.1049 146.294 52.6902 149.055 51.4809C154.59 49.2315 158.043 43.9342 160.981 38.9822C162.521 36.7288 164.401 30.7502 166.914 29.9382L166.897 29.9582C168.981 32.0755 168.953 40.3728 168.983 43.5008C168.794 49.8248 168.603 57.6528 163.299 62.0848C161.51 63.6075 159.145 63.9729 156.893 64.2889C153.469 64.7902 150.054 65.3195 146.622 65.7795C144.643 66.0288 142.601 66.2315 140.581 66.5768C140.475 66.5888 140.373 66.6288 140.277 66.6875C139.471 66.1315 138.657 65.5929 137.834 65.0662Z" fill="#8B1510"/>
<path d="M90.796 201.865C90.972 199.653 92.292 197.68 92.952 195.577C93.1013 195.428 93.188 195.261 93.2173 195.095C97.356 194.453 101.324 192.559 104.972 190.581C110.144 187.705 113.999 184.599 114.156 178.205C114.285 170.937 109.591 164.968 105.977 159.053C102.739 153.7 98.5853 148.983 94.8546 143.975C93.3293 141.767 91.516 139.556 90.7373 136.932C90.6986 136.633 90.5827 136.337 90.392 136.127C91.188 135.508 91.964 134.859 92.7173 134.191C98.5853 129.077 103.584 122.916 107.096 115.931C108.016 114.101 108.789 112.189 109.199 110.173C109.251 109.928 109.301 109.659 109.348 109.387C109.397 109.1 109.295 108.821 109.103 108.619C109.331 108.393 109.553 108.16 109.769 107.925C110.241 107.419 110.739 106.768 111.213 106.097C112.085 104.864 112.812 103.385 113.368 101.848C114.241 99.4533 114.552 96.8466 114.444 94.2933C114.361 92.3626 114.004 90.436 113.421 88.5933C112.816 86.676 111.989 84.8013 110.92 83.0946C110.868 83.0119 110.803 82.904 110.736 82.7933C110.604 82.5813 110.445 82.336 110.279 82.0933C108.095 78.8653 105.192 76.1066 101.824 74.1333C100.303 73.2426 98.7 72.5106 97.0307 71.9479C95.8133 71.5386 94.5679 71.2426 93.3053 71.0372C93.2639 71.0226 93.2173 71.0119 93.1706 71.0053C92.9946 70.9799 92.8199 70.956 92.6439 70.9346C92.5733 70.924 92.5027 70.9146 92.428 70.9066C92.4067 70.9026 92.384 70.8999 92.3626 70.8973C91.9 70.8413 91.4346 70.8013 90.9719 70.7773C90.9333 70.7746 90.896 70.7746 90.8573 70.7773C87.628 70.6253 84.3627 71.1733 81.428 72.5573C80.2747 73.1 79.1587 73.7586 78.136 74.5372C77.328 74.4906 76.496 74.6919 75.7093 74.8279C72.6573 75.4839 69.904 76.6026 66.9587 77.8119C64.6267 78.7919 62.328 79.8973 60 80.9093C61.4813 78.6599 63.3093 76.7039 65.2093 74.6719C69.4973 70.0479 74.2186 65.776 79.7853 62.724C92.184 56.144 107.204 54.8613 120.637 58.9399C130.769 61.9266 141.213 68.6359 148.683 76.1946C154.675 82.2333 157.673 90.3066 161.709 97.6466C165.171 103.808 169.396 109.793 174.796 114.427C179.435 118.172 184.996 120.512 190.371 122.987C191.673 123.577 192.964 124.193 194.189 124.939C194.689 125.279 195.781 125.819 195.428 126.639C192.265 131.097 187.987 134.724 183.629 137.988C179.74 140.807 175.435 143.573 170.527 144.159C168.725 144.369 166.907 144.367 165.103 144.224C163.959 144.2 162.728 143.884 161.636 144.311C159.949 145.113 160.701 147.26 160.327 148.727C159.384 154.537 154.965 159.763 150.443 163.323C147.74 165.303 144.68 166.705 141.576 167.932C137.98 169.315 134.196 170.659 130.325 171.171C129.101 171.3 127.876 171.307 126.652 171.189C126.111 171.151 125.531 171.113 125.085 171.485C124.42 172.037 124.673 172.947 124.643 173.696C124.461 180.683 120.591 185.284 115.624 189.796C112.007 193.225 108.283 196.573 104.264 199.577C102.032 201.196 97.836 204.168 94.5253 204.168C93.0027 204.168 91.668 203.54 90.796 201.865Z" fill="#CD2C37"/>
<path d="M320.33 379.1C315.859 367.48 307.111 357.201 295.993 351.469C291.195 349.071 285.839 348.301 280.562 347.797C274.903 347.208 269.199 346.895 263.51 347.193C253.621 348 243.585 348.743 233.799 346.449C226.901 345.039 220.326 341.393 216.498 335.336C211.641 327.433 210.246 317.816 210.931 308.62C211.357 303.736 212.229 298.873 213.913 294.239C213.971 293.975 214.118 293.691 214.25 293.407C218.402 292.655 222.581 290.741 225.797 288.929C230.974 286.095 234.455 280.979 235.938 275.339C235.941 275.337 235.941 275.337 235.941 275.335C236.649 273.072 237.309 270.541 237.513 268.105C247.397 270.084 257.547 263.697 263.626 256.273C265.717 253.431 266.957 250.103 267.559 246.633C267.671 246.543 267.785 246.449 267.905 246.375C275.098 242.375 283.534 240.803 291.584 239.335C312.731 235.716 336.791 237.769 356.251 247.177C362.662 250.376 365.793 254.189 363.059 261.451C362.097 264.289 360.099 266.529 358.579 269.08C356.432 272.977 360.14 273.555 363.1 272.421C366.943 271.161 370.14 268.623 373.418 266.341C366.179 276.519 357.001 285.079 347.515 293.167C334.803 304.904 318.445 304.347 303.043 298.675C303.035 298.672 303.026 298.669 303.018 298.667C302.986 298.655 302.957 298.645 302.927 298.633C288.794 293.473 275.99 285.227 263.539 276.893C262.598 276.228 261.565 275.487 260.549 274.72C260.139 274.409 259.553 274.46 259.225 274.869C258.911 275.264 258.965 275.883 259.377 276.191C266.338 281.365 273.767 285.884 281.24 290.271C293.031 297.188 305.985 303.208 319.786 304.385C320.922 304.479 322.046 304.525 323.156 304.525C333.268 304.525 342.411 300.687 349.902 293.593C357.341 287.165 364.726 280.428 370.906 272.7C372.686 270.476 374.466 268.231 376.037 265.849C376.587 265.041 377.389 263.609 376.209 262.977C374.979 262.596 373.947 263.761 372.973 264.353C369.105 266.863 364.679 271.077 359.833 271.001C360.193 269.633 361.147 268.632 361.912 267.449C363.1 265.776 364.126 264.005 364.834 262.069C366.354 258.124 366.236 255.025 365.051 252.508C365.039 252.217 364.875 251.96 364.821 251.669C364.361 250.071 364.486 248.308 364.187 246.671C364.205 246.572 364.202 246.472 364.182 246.372C363.991 245.464 363.813 244.551 363.666 243.635C361.566 226.968 361.081 209.485 366.581 193.371C371.35 179.793 384.629 171.243 398.187 168.136C409.335 165.704 420.956 165.239 432.356 166.073C442.392 167.003 452.182 170.224 461.053 175.023C479.897 185.425 496.517 200.257 508.415 218.259C510.418 221.367 512.271 224.576 513.871 227.911C514.898 230.313 516.298 232.617 516.591 235.271C513.045 234.679 509.841 232.553 506.497 231.247C503.729 229.996 500.909 228.691 498.171 227.249C492.189 224.096 486.654 220.192 480.887 216.611C475.321 213.167 469.469 210.18 463.386 207.767C452.485 203.488 440.451 200.999 428.728 202.837C415.075 205.363 402.659 213.813 395.493 225.729C393.218 229.208 390.971 232.7 388.687 236.172C387.378 238.348 380.839 247.064 385.153 248.399C387.035 248.396 388.309 246.619 389.755 245.62C391.323 244.335 392.89 243.045 394.459 241.763C399.51 237.631 404.492 233.669 409.956 230.035C414.999 226.735 420.306 224.092 425.983 221.928C434.227 218.689 443.626 216.511 452.29 219.483C465.98 223.721 477.607 232.637 487.834 242.453C493.465 247.808 498.903 253.319 503.953 259.247C507.542 263.639 511.538 267.879 514.071 273.004C506.269 270.104 498.786 266.341 490.923 263.58C478.239 259.032 465.079 255.996 452.071 252.531C439.446 249.4 425.434 247.679 413.33 253.541C409.327 255.419 405.553 257.72 401.837 260.109C399.749 261.793 383.141 270.703 387.469 273.475C388.535 273.824 389.615 273.177 390.646 272.936C392.432 272.4 394.217 271.861 396.006 271.34C401.127 269.859 406.267 268.448 411.471 267.3C420.121 265.264 429.267 264.333 437.879 267.051C453.14 271.609 464.541 285.98 466.031 301.788C466.945 313.907 461.597 326.171 455.161 336.197C454.334 326.741 452.762 317.113 447.965 308.781C442.613 299.92 434.989 291.951 425.427 287.664C418.742 284.835 411.342 283.733 404.111 284.017C402.237 284.288 397.123 284.288 396.462 286.335C396.256 288.329 398.917 288.405 400.258 289.043C403.505 290.241 406.721 291.451 409.699 293.289C416.206 297.615 422.418 302.945 427.263 309.156C430.845 313.959 433.255 319.584 434.65 325.427C437.089 336.367 436.793 348.113 433.414 358.901C431.902 363.333 429.556 371.237 425.084 373.308C424.122 363.136 423.782 352.816 420.095 343.105C416.184 332.731 408.223 321.336 397.539 317.247C396.395 316.761 394.729 317.195 394.991 318.693C395.159 319.424 395.593 320.021 395.938 320.691C396.983 322.604 398.023 324.616 399.054 326.641C403.543 334.824 405.455 344.277 405.193 353.596C404.911 357.684 404.715 362.293 401.999 365.6L401.997 365.603C400.545 358.708 399.411 351.78 397.123 345.061C395.632 341.079 394.321 336.765 391.515 333.497C391.373 333.397 391.211 333.345 391.05 333.331C390.658 332.748 389.589 332.719 389.343 333.573C386.646 342.591 382.059 351.868 373.755 356.94C379.635 350.076 383.943 341.083 382.019 331.879C381.286 328.303 379.312 321.941 374.99 321.637C367.611 321.901 361.967 326.259 357.575 331.884C355.338 334.503 353.232 337.257 351.662 340.333C347.182 349.241 345.082 359.725 346.942 369.603C348.323 375.925 352.195 381.34 356.675 385.879C353.943 384.811 346.933 381.367 346.717 386.581C346.859 388.233 347.941 389.567 348.881 390.864C351.457 394.473 354.251 397.912 357.018 401.373C347.431 395.543 338.953 401.087 334.209 409.992C333.146 407.579 332.431 405.072 331.619 402.56C331.143 401.359 331.026 399.801 329.994 398.932C328.246 398.176 328.29 400.541 328.251 401.649C327.727 407.031 327.198 412.789 324.109 417.395C324.525 404.597 324.682 391.329 320.33 379.1Z" fill="#FAA9C3"/>
<path d="M284.328 419.484C281.353 416.859 277.616 415.376 273.716 414.919C273.633 414.805 273.52 414.712 273.378 414.653C272.928 414.462 272.568 414.559 272.277 414.799C268.098 414.577 263.824 415.505 260.184 417.444C264.918 408.316 269.174 398.904 271.549 388.856C275.092 375.209 275.2 361.791 269.042 348.969C273.677 349.025 278.381 349.412 282.964 349.957C289.576 350.464 295.617 352.821 300.874 356.619C299.237 357.396 298.042 358.804 297.205 360.395C290.792 373.039 290.217 383.796 297.436 396.292C299.442 400.18 302.581 403.504 304.432 407.467C301.21 406.837 298.184 405.389 295.064 404.38C292.2 403.387 289.328 402.458 286.596 401.12C284.956 400.505 284.525 402.099 285.49 403.203C286.364 404.657 286.958 406.251 287.629 407.803C290.133 414.135 290.845 421.339 289.453 428.062C288.004 425.075 286.856 421.76 284.328 419.484Z" fill="#FAA9C3"/>
<path d="M220.736 149.485C226.361 149.485 227.705 152.334 225.497 157.512C223.086 163.516 217.853 167.616 213.048 171.662C212.19 172.585 212.286 173.85 212.529 174.992C213.426 181.282 211.206 186.077 207.356 190.906C202.968 197.073 196.121 202.084 188.329 202.361C187.737 202.409 187.145 202.304 186.554 202.198C185.837 202.072 185.125 201.944 184.422 202.096C183.406 202.438 183.321 203.584 183.093 204.473C182.244 207.738 180.969 210.904 179.344 213.86C175.87 220.129 169.744 225.145 162.441 226.014C159.91 226.249 156.777 226.836 154.4 225.433C153.957 225.16 153.846 224.618 153.486 224.266C152.28 223.365 151.342 225.105 150.518 225.781C148.917 227.368 147.25 228.888 145.581 230.4C139.586 235.974 132.406 241.629 123.885 241.629C123.449 241.629 123.014 241.614 122.57 241.585C119.976 241.489 116.361 240.23 116.738 237.056C117.008 235.328 117.81 233.776 118.456 232.158C121.249 225.918 124.617 219.956 127.82 213.92C131.144 207.768 134.11 201.425 137.496 195.304C139.236 192.182 141.154 188.922 143.658 186.285C145.414 184.176 148.05 183.561 150.504 182.653C155.685 180.482 160.186 177.001 164.194 172.957C166.473 170.644 168.433 168.218 170.216 165.44C170.752 164.669 171.145 163.788 171.689 163.029C172.726 162.01 174.032 161.34 175.364 160.789C183.764 157.624 192.473 155.245 201.124 152.829C207.376 151.309 213.677 149.644 220.141 149.494C220.345 149.488 220.542 149.485 220.736 149.485Z" fill="#FF5F67"/>
<path d="M281.289 211.34C282.694 212.999 281.698 215.143 281.255 217.072C279.965 221.464 278.709 226.083 275.845 229.747C273.686 232.601 270.31 233.943 267.138 235.321C265.762 235.969 265.799 237.261 266.022 238.559C266.47 243.732 265.638 249.279 263.029 253.831C258.113 261.067 247.45 268.012 238.406 266.357C235.167 265.552 235.826 267.461 235.399 269.773C234.237 275.621 232.318 281.795 227.407 285.577C221.545 289.912 207.839 295.948 202.829 287.865C202.491 287.416 201.865 287.195 201.361 287.519C200.735 287.929 200.67 288.767 200.337 289.381C198.266 293.657 196.046 298.176 191.951 300.861C189.726 302.384 187.351 303.784 184.678 304.317C184.091 304.452 183.474 304.521 182.853 304.521C179.937 304.521 176.943 303.016 176.502 299.865C176.03 296.528 177.854 293.423 179.05 290.416C180.825 286.336 182.458 282.192 184.049 278.037C186.443 271.787 188.567 265.436 190.874 259.155C192.518 254.781 194.183 250.295 197.051 246.553C197.094 246.5 197.126 246.441 197.153 246.38C197.294 246.404 197.439 246.415 197.583 246.415C198.447 246.415 199.367 246.032 200.19 245.88C202.234 245.303 204.239 244.544 206.061 243.433C211.994 240.125 217.781 235.328 219.873 228.584C219.873 228.577 219.87 228.567 219.869 228.56C224.482 223.819 230.915 221.18 237.025 218.788C246.373 215.204 255.951 212.029 265.834 210.269C270.113 209.719 277.823 208.353 281.289 211.34Z" fill="#CD2C37"/>
<path d="M63.2988 110.401C65.1935 112.345 65.4228 115.288 64.4641 117.75C63.4894 120.354 62.0041 122.724 60.2041 124.864C60.1161 124.762 60.0015 124.677 59.8548 124.613C52.5228 121.953 43.3588 128.258 35.7575 128.554C35.4548 128.566 35.1508 128.574 34.8454 128.574C32.5934 128.574 30.2548 128.214 28.3148 126.99C25.4134 125.045 26.6788 120.778 29.3468 119.238C33.0268 116.986 37.1628 117.062 41.3215 117.138C44.5508 117.197 47.7921 117.256 50.8495 116.23C53.5801 115.514 56.0694 114.088 58.3028 112.384C59.5974 111.457 60.7894 110.213 62.3948 109.861C62.5081 109.832 62.6201 109.817 62.7308 109.814C62.9388 109.982 63.1295 110.176 63.2988 110.401Z" fill="#FF5F67"/>
</svg>
