<svg width="395" height="341" viewBox="0 0 395 341" fill="none" xmlns="http://www.w3.org/2000/svg">
<path d="M91.9647 129.197C81.2001 127.305 72.759 122.267 81.1683 111.253C75.8255 107.513 78.4179 103.023 81.9113 99.0422C87.507 92.7285 95.0785 88.6759 102.113 84.1727C108.641 80.0573 115.343 76.058 122.678 73.5944C128.432 70.9361 133.901 72.6743 138.896 76.0439C146.483 80.8329 152.838 87.134 158.196 94.2249C159.666 96.0605 161.437 98.0185 161.848 100.339C163.286 104.709 161.784 109.082 158.923 112.466C156.679 115.3 154.134 117.744 151.636 120.152C149.123 122.477 146.61 124.936 143.606 126.646C134.47 131.567 123.626 131.662 113.462 131.732L113.62 131.736C106.333 131.564 99.0779 130.763 91.9647 129.197ZM93.1659 127.188C99.8523 128.621 106.76 129.339 113.557 129.519C118.078 129.607 122.615 129.405 127.135 128.935L127.025 128.943C137.9 127.797 143.227 125.594 150.862 117.807C159.445 109.405 164.646 104.13 154.956 93.7287C151.747 89.786 148.333 85.8591 144.318 82.7171C139.575 79.2533 134.991 75.0374 128.969 74.4674C125.934 74.3952 122.946 75.923 120.196 76.8949C111.233 80.5205 103.425 86.0852 95.2525 91.1113C90.0994 94.4636 84.7723 98.1975 81.4054 103.401C80.8364 104.433 80.2042 105.585 80.3148 106.796C81.2158 109.126 83.6975 110.41 86.0054 111.062C91.3956 112.483 96.8648 112.486 102.366 112.992C109.842 113.392 117.493 114.43 124.938 113.827C131.245 113.238 136.857 109.895 142.753 107.823C146.183 106.554 149.471 104.93 152.806 103.467C154.213 103.019 154.972 104.951 153.723 105.554C149.486 107.306 145.282 109.339 140.935 110.936C137.031 112.403 133.221 114.207 129.206 115.392C123.342 116.71 117.335 116.217 111.407 115.834C106.823 115.534 102.239 115.22 97.671 114.859C92.7392 114.413 87.6651 114.323 83.0811 112.354C75.1459 122.552 84.1243 125.435 93.1659 127.188Z" fill="black"/>
<path d="M118.913 85.4001C118.566 84.257 119.862 83.9085 120.684 83.6337C121.648 83.2443 122.581 82.7952 123.482 82.3022C124.24 81.9583 125.062 81.1088 125.963 81.3993C126.58 81.616 126.88 82.3744 126.564 82.9538C126.422 83.2443 126.153 83.4374 125.853 83.5128C124.066 84.5365 122.28 85.4708 120.32 86.1208C120.21 86.1585 120.099 86.1758 119.988 86.1758C119.53 86.1758 119.056 85.8618 118.913 85.4001Z" fill="black"/>
<path d="M137.725 88.2154C135.686 87.0566 134.058 85.3766 132.224 83.9414C131.244 83.4421 131.656 81.7181 132.873 81.8688C133.299 81.9379 133.631 82.1875 133.948 82.4528C135.576 83.8315 137.125 85.3184 138.99 86.394C139.97 87.0739 139.29 88.418 138.342 88.418C138.136 88.418 137.931 88.3567 137.725 88.2154Z" fill="black"/>
<path d="M154.497 79.9514C152.221 79.3987 150.055 78.4158 148.111 77.1172C144.507 74.7133 141.709 71.058 140.397 67.0917C140.366 66.985 140.334 66.8782 140.286 66.7698C140.286 66.7698 140.287 66.7698 140.302 66.7698C140.049 66.0083 139.844 65.2295 139.717 64.5873C139.528 63.6295 139.401 62.667 139.37 61.8395C139.354 61.6699 139.338 61.5003 139.338 61.4736C139.306 60.7152 139.322 59.9522 139.386 59.2016C139.386 59.1828 139.386 59.1623 139.386 59.1419C139.386 59.1136 139.386 59.087 139.386 59.0902L139.401 59.0148C139.607 56.5151 140.287 54.0169 141.409 51.825C141.44 51.759 141.472 51.6931 141.504 51.6522C142.515 49.6298 143.922 47.7582 145.582 46.2163C147.321 44.61 149.297 43.3272 151.462 42.3819C155.651 40.5574 160.535 40.2858 164.914 41.5607C165.451 41.7162 165.973 41.892 166.479 42.0883C166.526 42.0993 166.574 42.1119 166.605 42.1292C166.779 42.1951 166.953 42.25 167.095 42.327C167.111 42.3301 167.111 42.3332 167.111 42.3364C167.206 42.3756 167.301 42.4196 167.411 42.4636C167.728 42.6065 168.06 42.7604 168.376 42.9205C168.708 43.0823 169.024 43.2534 169.34 43.4308C169.356 43.4434 169.387 43.4575 169.403 43.4716C169.466 43.503 169.514 43.5328 169.577 43.5642C170.652 44.1923 171.664 44.9444 172.549 45.7232C173.94 46.9307 175.141 48.3297 176.121 49.8277C177.07 51.2628 177.828 52.8346 178.318 54.3215C178.334 54.3828 178.35 54.4424 178.366 54.4801C178.366 54.5005 178.382 54.5209 178.382 54.5413L178.397 54.5696C179.093 56.7082 179.409 58.9833 179.346 61.2287C179.283 63.5148 178.808 65.7539 177.986 67.8878C177.56 69.0152 176.991 70.0813 176.358 71.1129C175.742 72.1571 174.967 73.1086 174.177 74.0052C172.612 75.7826 170.636 77.224 168.534 78.32C166.4 79.4333 164.045 80.1304 161.658 80.4068C160.899 80.4963 160.124 80.5371 159.366 80.5371C157.738 80.5371 156.094 80.3377 154.497 79.9514ZM141.567 61.2946V61.4045C141.567 61.505 141.583 61.604 141.583 61.7045C141.63 62.3906 141.709 63.0768 141.82 63.7535C141.851 63.909 141.883 64.0628 141.883 64.0738C142.025 64.7427 142.199 65.4054 142.389 66.0021C142.436 66.1575 142.484 66.3145 142.499 66.3286C142.737 67.0399 143.037 67.7355 143.29 68.2772C143.638 68.9916 144.049 69.6778 144.475 70.3499C144.934 71.0439 145.44 71.7049 145.993 72.3392C146.499 72.8951 147.036 73.4164 147.589 73.9235C148.143 74.3961 148.728 74.8374 149.312 75.2582C149.96 75.6821 150.624 76.0652 151.304 76.4201C152.031 76.7781 152.774 77.089 153.549 77.3653C154.323 77.6134 155.082 77.8192 155.73 77.9589C156.441 78.0924 157.137 78.1928 157.848 78.2619C158.575 78.3137 159.302 78.3279 160.03 78.3137C160.946 78.2588 161.847 78.1583 162.748 77.9997C163.412 77.8584 164.06 77.6951 164.708 77.5036C165.53 77.2272 166.337 76.9131 167.127 76.5473C167.838 76.1893 168.534 75.7952 169.213 75.3618C169.814 74.9473 170.399 74.503 170.968 74.0335C171.49 73.5608 171.996 73.0678 172.391 72.6611C172.549 72.4915 172.691 72.3236 172.786 72.2341C173.26 71.6923 173.687 71.113 174.098 70.5163C174.493 69.9196 174.841 69.3182 175.189 68.6917C175.536 67.9632 175.868 67.2252 176.137 66.4605C176.358 65.7665 176.58 65.074 176.738 64.3596C176.88 63.6185 176.991 62.8773 177.07 62.1252C177.117 61.3637 177.133 60.6053 177.101 59.8485C177.054 59.0697 176.975 58.305 176.848 57.5419C176.69 56.749 176.501 55.9686 176.263 55.2212L176.248 55.1804C176.232 55.1081 176.2 55.0375 176.184 54.9653C175.947 54.2839 175.663 53.6181 175.362 52.9696C175.015 52.2929 174.635 51.6381 174.24 51.0006C174.193 50.9315 174.145 50.8656 174.193 50.9236C173.75 50.2626 173.26 49.6409 172.739 49.0348C172.217 48.4648 171.679 47.9231 171.174 47.4693C171.158 47.4473 171.126 47.4237 171.095 47.4002C170.525 46.8993 169.909 46.433 169.308 46.0263C168.66 45.5992 167.996 45.2098 167.301 44.8581C166.985 44.7026 166.653 44.5551 166.321 44.4122C165.941 44.2536 165.578 44.1091 165.183 43.9741C164.55 43.7574 163.902 43.5752 163.238 43.4229C162.401 43.2439 161.547 43.1199 160.678 43.043C159.95 42.9959 159.223 42.9849 158.496 43.01C157.69 43.0602 156.884 43.1513 156.094 43.2895C155.335 43.4402 154.576 43.6271 153.849 43.8547C153.122 44.0997 152.395 44.3823 151.699 44.7058C150.956 45.0716 150.229 45.4751 149.534 45.9226C148.87 46.3717 148.237 46.8537 147.621 47.3719C147.084 47.8445 146.578 48.3407 146.104 48.8652C145.566 49.4618 145.076 50.0899 144.618 50.7383C144.238 51.3067 143.891 51.8893 143.574 52.4938C143.527 52.5833 143.48 52.676 143.432 52.7655C143.416 52.7796 143.416 52.7938 143.416 52.8032C143.1 53.4548 142.8 54.1142 142.563 54.7973C142.326 55.518 142.12 56.2418 141.946 56.9798C141.804 57.6518 141.693 58.3318 141.63 58.963C141.63 59.0038 141.63 59.043 141.63 59.0839C141.63 59.0901 141.63 59.098 141.63 59.098C141.614 59.1451 141.614 59.1906 141.614 59.2173C141.614 59.2565 141.614 59.2973 141.599 59.335V59.3319C141.567 60.0008 141.551 60.6665 141.567 61.2946Z" fill="black"/>
<path d="M101.196 77.8695L101.338 77.8726C100.421 77.8444 99.5199 77.7832 98.6347 77.6481C98.4925 77.6246 98.3661 77.6026 98.3028 77.59C97.5283 77.466 96.7537 77.2964 96.0266 77.0829C96.0108 77.0797 96.0109 77.0781 95.9951 77.075C95.9635 77.0624 95.916 77.0546 95.9318 77.0546C94.7937 76.7091 93.6872 76.293 92.6123 75.789C91.569 75.2991 90.589 74.6884 89.6406 74.0273C87.7279 72.688 86.0681 70.9843 84.7245 69.0876C83.6812 67.6367 82.8909 66.054 82.2587 64.4226C80.678 60.2742 80.5514 55.5809 81.8002 51.4796C81.816 51.4074 81.8477 51.3352 81.8477 51.2896C81.8635 51.2551 81.8792 51.2205 81.8792 51.1891C81.895 51.1766 81.8951 51.1656 81.8951 51.1624C82.6697 48.6282 83.9816 46.2886 85.5939 44.2929C88.4708 40.7334 92.5965 38.1709 97.0857 37.1738C99.3303 36.6776 101.606 36.5441 103.883 36.7608C105.685 36.9304 107.471 37.3716 109.178 38.0232C109.21 38.0342 109.241 38.0468 109.289 38.0641C109.573 38.174 109.842 38.2886 110.095 38.4064C110.111 38.4095 110.111 38.4158 110.126 38.4189C110.142 38.4236 110.142 38.4268 110.158 38.4331L110.19 38.4441C110.253 38.4755 110.332 38.5084 110.38 38.5304C111.691 39.1192 112.924 39.8572 114.078 40.7019C114.126 40.7302 114.157 40.7648 114.205 40.7993C115.28 41.6001 116.276 42.503 117.177 43.5095C117.651 44.0339 118.093 44.585 118.425 45.0372C121.207 48.7821 122.63 53.4251 122.456 58.0728C122.361 60.6526 121.76 63.2292 120.765 65.4573C120.385 66.2958 119.974 67.1154 119.563 67.7811C119.469 67.9224 119.389 68.0669 119.374 68.0889C118.994 68.7264 118.552 69.3435 118.093 69.9166C118.093 69.9229 118.093 69.9307 118.077 69.9401C118.077 69.948 118.062 69.9543 118.062 69.9543C118.014 70.0234 117.951 70.0893 117.919 70.1332C117.904 70.1536 117.888 70.1741 117.872 70.193L117.856 70.2165C115.011 73.7243 111.012 76.2334 106.602 77.2932C105.021 77.6654 103.393 77.8789 101.78 77.8789C101.575 77.8789 101.385 77.8758 101.196 77.8695ZM101.022 75.6508C101.117 75.654 101.211 75.6556 101.306 75.6587C102.065 75.665 102.839 75.6383 103.614 75.5677C104.436 75.4719 105.258 75.34 105.922 75.1829C106.001 75.1657 106.064 75.1484 106.127 75.1311C106.934 74.927 107.708 74.6821 108.467 74.3932C109.257 74.0823 110.016 73.7274 110.617 73.3992C111.375 72.969 112.118 72.5027 112.814 71.9892C113.43 71.5292 113.999 71.0361 114.458 70.62C115.027 70.0673 115.58 69.4958 116.07 68.885L116.165 68.7751C116.212 68.7091 116.275 68.6432 116.291 68.6228C116.702 68.0811 117.082 67.5299 117.382 67.0808L117.429 66.9992C117.524 66.8563 117.603 66.7119 117.682 66.591C118.014 66.0289 118.33 65.4431 118.599 64.8465C118.599 64.8465 118.599 64.8465 118.599 64.8496C118.599 64.8465 118.599 64.8465 118.599 64.8433C118.631 64.7507 118.678 64.6612 118.71 64.6015C119.01 63.8777 119.279 63.1492 119.5 62.4017C119.69 61.6952 119.864 60.9902 119.99 60.2711C120.117 59.398 120.211 58.5282 120.243 57.7525C120.243 56.9658 120.227 56.1839 120.148 55.4035C120.053 54.6184 119.927 53.849 119.753 53.0828C119.548 52.2459 119.295 51.4278 118.994 50.6238C118.694 49.8592 118.346 49.1181 117.951 48.3926C117.556 47.7143 117.145 47.058 116.686 46.4205C116.639 46.3545 116.592 46.2902 116.544 46.2274C116.07 45.6024 115.548 45.0074 115.011 44.4405C114.489 43.9192 113.952 43.4278 113.383 42.9646C112.924 42.6066 112.466 42.2674 111.976 41.9503C111.944 41.9267 111.913 41.9063 111.881 41.8827C111.865 41.8717 111.849 41.8607 111.834 41.8466C111.77 41.8105 111.707 41.7744 111.66 41.7367C111.644 41.7305 111.644 41.7241 111.628 41.7226C111.581 41.6896 111.533 41.6613 111.486 41.6299C111.47 41.6158 111.439 41.6032 111.423 41.5891C111.391 41.5655 111.344 41.5467 111.312 41.5263C111.296 41.5121 111.28 41.4996 111.265 41.4886C110.664 41.1432 110.063 40.8276 109.431 40.534L109.415 40.5261C109.352 40.4947 109.273 40.4617 109.241 40.4507C108.546 40.1367 107.803 39.8792 107.076 39.65C106.301 39.4239 105.511 39.2464 104.705 39.1051C103.914 38.9842 103.108 38.9089 102.286 38.8712C101.464 38.8602 100.642 38.8884 99.8203 38.9638C99.0141 39.058 98.2081 39.1914 97.4177 39.3673C96.5957 39.5746 95.7737 39.8227 94.9834 40.1257C94.2562 40.4162 93.5449 40.7412 92.8651 41.1024C92.0748 41.5405 91.3161 42.0225 90.6522 42.503C90.0515 42.9646 89.4667 43.4545 88.8976 43.9758C88.3444 44.5238 87.8228 45.0922 87.396 45.582C87.3327 45.6621 87.2696 45.7438 87.2221 45.8003C86.7321 46.4095 86.2895 47.058 85.8943 47.7034C85.4991 48.3613 85.1356 49.0348 84.8194 49.7304C84.5033 50.4386 84.2346 51.1515 84.0291 51.8031C84.0133 51.8314 84.0132 51.8596 83.9974 51.8768C83.9974 51.9004 83.9817 51.924 83.9817 51.9491C83.9817 51.9696 83.9658 51.9899 83.9658 51.9962L83.9501 52.0684C83.7288 52.7766 83.5707 53.5067 83.4442 54.2384C83.3177 55.0313 83.2387 55.8211 83.2071 56.6219C83.1755 57.5216 83.2228 58.4088 83.3019 59.3053C83.3967 60.0433 83.539 60.7735 83.697 61.502C83.8867 62.2526 84.1081 62.9843 84.3452 63.6705C84.3926 63.7678 84.4242 63.8667 84.4717 63.964C84.772 64.7318 85.1355 65.4667 85.5149 66.1843C85.8784 66.8202 86.2736 67.4326 86.7004 68.0324C87.1904 68.6887 87.712 69.3168 88.2811 69.9197C88.8976 70.5478 89.5458 71.1366 90.2255 71.6924C90.8262 72.1541 91.4583 72.589 92.1064 72.9925C92.7387 73.3615 93.3868 73.6992 94.0507 74.0101C94.762 74.3241 95.4892 74.6161 96.2005 74.8265C96.3586 74.8752 96.5167 74.9239 96.5483 74.9302C97.1964 75.106 97.8445 75.2677 98.4452 75.3761C98.5716 75.3933 98.6821 75.4106 98.7928 75.431C98.8402 75.4373 98.8877 75.4451 98.9351 75.4546V75.4514C99.6306 75.5472 100.326 75.61 101.022 75.6508Z" fill="black"/>
<path d="M90.6685 57.0452C88.4555 55.5975 89.4672 51.5621 92.2176 51.6045C92.8815 51.6076 93.6876 51.7757 94.0354 52.41C96.6594 54.2032 94.6836 57.4863 92.2018 57.4863C91.696 57.4863 91.1744 57.3529 90.6685 57.0452Z" fill="black"/>
<path d="M160.789 61.4781C158.623 60.5549 158.228 56.854 160.441 55.7988C161.61 55.1268 163.76 55.2194 164.408 56.5321C166.795 58.4022 164.472 61.709 161.927 61.709C161.547 61.709 161.168 61.6367 160.789 61.4781Z" fill="black"/>
<path d="M96.7694 88.5718C96.1845 88.4823 95.7262 87.8998 95.8369 87.3063C96.0898 85.9983 96.2795 84.6684 96.3901 83.351C96.7063 81.8531 96.1687 76.4422 97.7969 76.1973C98.3975 76.0874 98.9982 76.4156 99.1405 77.0248C98.8717 79.1288 98.7453 81.4715 98.6189 83.5064C98.4924 84.8929 98.3186 86.2809 98.0499 87.647C97.9392 88.1887 97.4808 88.5859 96.9434 88.5859C96.896 88.5859 96.8326 88.5828 96.7694 88.5718Z" fill="black"/>
<path d="M216.62 102.038C215.261 101.813 215.814 100.102 215.846 99.2461C216.004 97.5095 216.083 95.7682 216.146 94.0285C216.557 81.6649 217.284 69.2951 216.731 56.9253C216.747 56.9253 216.747 56.9285 216.747 56.9285C216.525 48.6788 215.229 40.1653 211.499 32.7399C207.958 25.101 202.979 17.8594 195.976 12.9856C181.086 2.99458 162.181 0.408492 144.714 3.39496C138.565 4.38731 132.258 5.8303 126.599 8.4258C117.526 12.078 110.65 19.786 106.192 28.2288C104.785 31.0159 103.647 33.9773 103.11 37.0501C103.11 37.4096 102.952 37.7676 102.636 37.989C101.719 38.6438 100.533 37.6436 100.912 36.5476C101.529 33.3162 102.714 30.135 104.2 27.2255C107.741 20.4141 112.847 14.2857 119.138 9.82645C126.741 5.08767 135.514 2.5675 144.319 1.21558C161.754 -1.80857 180.501 0.691187 195.628 10.0949C203.911 15.2451 209.602 23.3393 213.585 31.9328C217.458 39.6989 218.77 48.4511 218.96 56.9567C218.96 56.9017 218.96 56.8656 218.96 56.8154C219.434 66.5991 219.039 76.3892 218.644 86.1666C218.501 90.2601 218.406 94.3566 218.154 98.4469C217.901 99.634 218.454 102.041 216.715 102.041C216.683 102.041 216.652 102.038 216.62 102.038Z" fill="black"/>
<path d="M176.516 286.043C171.647 286.03 166.795 286.019 161.926 286.043C133.521 285.33 102.112 273.393 85.8308 249.304C76.5679 234.423 77.4374 216.17 77.6587 199.338C78.3226 182.496 80.3458 165.716 84.2027 149.29C85.9099 142.106 87.2693 134.775 89.2136 127.677C90.0672 126.684 91.6636 127.546 91.1262 128.821C87.4115 145.704 82.9223 162.512 81.3258 179.754C79.6819 197.857 78.37 216.404 81.974 234.305C85.2777 249.198 96.5797 260.355 109.099 268.348C124.368 278.014 142.468 283.073 160.488 283.788C178.16 283.97 195.848 283.935 213.505 283.307C235.05 282.747 256.547 279.498 276.275 270.623C279.436 269.268 282.581 267.775 285.616 266.167C286.154 265.886 286.818 266.002 287.15 266.541C287.45 267.037 287.308 267.783 286.77 268.066C272.307 275.684 256.563 280.808 240.377 283.26C222.119 285.757 203.673 286.057 185.242 286.057C182.333 286.057 179.425 286.049 176.516 286.043Z" fill="black"/>
<path d="M168.691 151.546C167.822 151.037 168.122 149.949 168.739 149.351C169.561 148.28 170.414 147.238 171.284 146.203C177.18 139.313 183.25 132.574 189.383 125.886C198.741 116.324 207.308 105.281 219.037 98.5012C232.125 92.4073 246.004 88.138 259.313 82.5545C273.192 76.8862 287.213 71.5648 301.613 67.3803C312.141 64.4677 322.494 60.5705 333.369 59.1463C338.491 58.3377 343.454 60.4355 345.256 65.5181C347.043 70.0873 343.992 74.7617 340.166 77.2033C337.89 78.7892 335.377 79.9919 332.8 81.0408C332.247 81.2716 331.583 81.0408 331.33 80.4755C331.093 79.937 331.346 79.2414 331.899 79.0137C333.211 78.4783 334.508 77.9162 335.646 77.3305C337.827 76.1827 340.103 74.7852 341.7 72.923C344.798 69.5911 343.692 64.5949 339.945 62.2632C338.096 61.084 335.662 61.153 333.654 61.343C324.17 62.5285 315.16 65.8368 305.992 68.3978C289.884 72.9544 274.204 78.7986 258.76 85.1688C245.956 90.4901 232.584 94.6385 220.033 100.484C213.157 104.385 207.577 109.957 202.202 115.58C194.71 123.357 187.36 131.274 180.215 139.357C176.8 143.245 173.323 146.975 170.24 151.072C170.067 151.463 169.64 151.68 169.229 151.68C169.039 151.68 168.865 151.636 168.691 151.546Z" fill="black"/>
<path d="M334.35 158.627C326.177 157.898 318.337 155.22 310.671 152.478C306.419 150.899 302.325 148.959 298.183 147.166C296.887 146.54 297.788 144.563 299.147 145.166C311.888 150.737 330.524 159.051 344.466 155.75C358.029 151.983 351.374 143.272 342.49 138.804C341.732 138.314 340.767 138.007 340.198 137.293C339.392 135.927 340.846 135.186 342.064 135.264C345.478 135.085 349.066 135.186 352.212 133.682C357.918 131.819 364.842 125.364 356.922 121.13C354.314 119.581 351.216 119.271 348.45 118.245C347.628 117.806 347.643 116.546 348.497 116.155C348.94 115.939 349.446 115.877 349.936 115.791C353.144 115.235 356.495 114.529 359.309 112.871C361.411 111.574 363.798 110.225 364.81 107.873C365.98 105.082 364.778 101.399 362.233 99.7848C357.887 97.8236 352.986 99.5021 348.418 99.5445C348.054 99.5335 347.659 99.5743 347.264 99.6135C346.379 99.6999 345.478 99.7895 344.767 99.3294C344.435 99.0264 344.292 98.5757 344.435 98.147C344.703 97.3258 345.715 97.2238 346.442 97.0103C349.793 95.9441 353.35 94.9502 355.911 92.4222C359.815 88.8705 360.02 83.1598 355.737 79.831C350.584 76.2479 343.945 78.5309 338.396 79.7901C336.247 80.2942 334.097 81.2222 331.947 81.5912C330.509 81.5048 330.588 79.3348 332.074 79.3772V79.3379C339.408 77.4208 348.371 73.6178 355.642 77.1648C364.589 82.359 361.807 93.0393 353.239 96.9129C356.543 96.6601 360.147 96.189 363.198 97.7749C366.359 99.5476 367.956 103.652 367.371 107.138C366.075 112.886 358.709 116.221 353.413 117.353C361.001 119.277 366.485 125.261 359.609 131.892C357.807 133.686 355.421 134.751 353.097 135.71C350.41 137.02 347.422 137.238 344.466 137.382C362.613 147.68 353.476 158.795 337.748 158.795C336.642 158.795 335.519 158.74 334.35 158.627Z" fill="black"/>
<path d="M280.715 185.457C267.943 184.223 255.139 173.049 248.769 162.433C246.714 166.725 242.114 169.81 237.277 169.631C234.606 169.562 232.266 168.063 230.117 166.634C230.18 170.014 228.963 173.049 226.845 175.613C224.268 178.953 220.743 182.477 216.127 181.477C213.409 181.122 210.785 180.195 208.382 178.878C207.845 178.598 207.591 177.963 207.86 177.4C208.113 176.873 208.809 176.595 209.346 176.878C210.879 177.7 212.476 178.423 214.167 178.825C216.08 179.266 217.961 179.729 219.81 179.049C222.672 177.576 224.821 174.817 226.497 172.183C227.429 170.569 227.888 168.724 227.904 166.869C227.904 166.017 227.809 165.042 228.378 164.337C229.548 163.195 231.002 164.555 231.998 165.235C234.1 166.562 236.281 167.8 238.826 167.342C242.13 166.913 245.007 164.734 246.556 161.865C247.062 161.061 247.172 160.052 247.852 159.372C249.069 158.426 250.081 159.681 250.445 160.799C256.356 171.479 271.357 184.399 284.272 183.237C285.536 183.042 286.864 182.66 287.813 181.781C288.998 180.432 289.946 178.547 289.804 176.735C289.488 174.031 287.67 171.804 286.991 169.259C286.991 168.642 287.591 168.097 288.223 168.169C289.014 168.297 289.52 168.969 290.152 169.4C294.53 172.969 301.027 175.469 306.291 172.327C309.784 170.2 310.669 165.21 309.61 161.51C308.978 159.478 308.03 157.591 306.765 155.953C304.078 152.554 300.98 149.18 297.376 146.801C296.317 146.601 295.985 145.25 296.933 144.7C298.545 143.849 302.466 148.135 303.714 149.159C308.125 153.598 312.851 159.026 312.219 165.648C311.318 177.066 298.83 178.328 290.879 172.643C292.396 175.841 292.46 178.704 290.626 181.725C289.061 184.65 285.71 185.553 282.549 185.553C281.916 185.553 281.316 185.518 280.715 185.457Z" fill="black"/>
<path d="M304.758 255.229C304.458 254.733 304.584 253.995 305.122 253.701C307.714 252.253 310.338 250.916 313.041 249.697C322.952 245.035 330.318 242.262 341.462 242.956C345.983 243.073 350.52 243.17 355.04 243.346C360.589 243.493 366.248 244.231 371.733 243.087C375.795 242.386 379.115 239.81 381.565 236.596C384.22 233.082 379.447 231.106 376.791 229.875C372.681 228.151 368.35 227.002 364.272 225.188C363.576 224.843 362.644 224.505 362.47 223.661C362.312 222.098 363.94 222.126 365.173 222.159C365.394 222.164 365.584 222.17 365.773 222.167C370.168 222.15 374.657 222.219 378.893 221.194C383.272 220.143 396.803 215.436 391.65 209.38C388.82 207.186 385.058 206.973 381.707 206.1C378.735 205.42 375.732 204.892 372.823 203.983C371.907 203.785 370.879 202.969 371.385 201.958C371.827 201.154 372.808 200.968 373.566 200.588C376.997 198.927 380.363 197.538 383.114 194.947C385.469 192.574 388.883 189.643 388.14 185.964C386.844 183.995 376.317 186.184 373.709 186.336C368.492 187.039 363.371 188.256 358.234 189.406C357.095 189.527 355.72 190.412 354.693 189.629C353.555 188.438 355.467 187.418 355.91 186.363C358.518 181.856 357.554 175.78 354.835 171.58C352.527 168.147 348.749 166.348 345.145 164.581C339.929 161.906 334.017 163.261 330.255 167.657C327.837 170.51 328.421 174.459 329.575 177.724C330.286 175.356 333.353 175.083 335.392 175.717C339.739 177.014 339.676 182.698 337.953 186.031C336.293 190.495 331.836 192.987 327.346 193.926C323.869 194.875 319.933 194.919 316.85 192.799C312.314 188.726 310.464 182.453 306.26 178.045C305.675 177.428 305.058 176.789 304.316 176.351C303.256 176.339 302.861 174.831 303.778 174.304C303.747 174.334 303.699 174.359 303.667 174.389C303.652 174.406 303.62 174.423 303.604 174.437C305.501 172.944 308.821 177.645 309.864 178.934C312.251 182.214 314.116 185.881 316.471 189.17C317.989 191.698 321.166 192.595 323.98 192.298C330.476 191.456 335.74 189.029 336.846 182.045C336.957 180.562 336.594 178.587 335.06 177.956C334.096 177.59 332.452 177.348 331.772 178.248C331.188 179.479 331.551 180.698 331.346 181.943C331.029 182.915 329.733 182.96 329.164 182.169C327.852 180.332 327.362 178.025 326.73 175.893C325.418 171.03 327.22 166.23 331.551 163.554C339.154 158.194 347.01 162.177 353.634 167.009C359.324 171.669 361.49 180.66 357.996 187.187C366.074 185.259 374.246 183.759 382.529 183.076C385.2 182.952 388.678 182.352 390.148 185.001C391.476 188.504 388.962 192.087 386.655 194.572C383.541 198.158 379.352 200.395 375.084 202.33C380.411 203.82 386.101 204.238 391.191 206.448C396.692 208.948 395.807 215.249 391.254 218.207C384.473 222.882 376.332 224.551 368.223 224.388C373.234 226.612 387.919 229.219 383.888 237.013C382.387 239.527 379.937 241.796 377.502 243.338C375.352 244.517 372.95 245.186 370.531 245.571C365.742 246.257 360.889 245.78 356.084 245.607C348.386 245.422 340.64 244.819 332.958 245.359C325.165 246.166 318.321 249.788 311.334 252.946C310.259 253.478 309.247 253.992 308.299 254.491C307.509 254.781 306.529 255.727 305.675 255.727C305.359 255.727 305.043 255.588 304.758 255.229Z" fill="black"/>
<path d="M284.587 267.888C284.145 266.811 285.378 266.28 286.152 265.936C287.117 265.476 288.144 264.931 288.998 264.339C291.511 262.728 293.882 260.965 296.364 259.313C296.364 259.318 296.348 259.321 296.348 259.327C299.162 257.528 301.912 255.727 304.726 253.971C305.99 253.262 307.081 255.155 305.832 255.893C305.026 256.382 304.22 256.886 303.43 257.41C299.525 259.889 295.652 262.452 291.89 265.09C290.341 266.118 288.871 267.142 287.164 267.908C286.674 268.177 286.058 268.549 285.504 268.549C285.141 268.549 284.809 268.378 284.587 267.888Z" fill="black"/>
<path d="M296.476 259.254C296.444 259.27 296.428 259.287 296.397 259.301C296.397 259.305 296.381 259.309 296.381 259.312C296.412 259.292 296.444 259.275 296.476 259.254Z" fill="black"/>
<path d="M206.802 312.053C206.28 312.053 205.774 311.736 205.711 311.081C205.521 305.72 205.205 300.404 205.316 295.048C205.347 292.799 205.442 290.551 205.395 288.302C205.474 287.225 205.11 285.939 205.806 285.016C206.375 284.383 207.529 284.674 207.75 285.495C207.608 287.202 207.592 287.795 207.64 289.58C207.576 294.396 207.418 299.413 207.671 304.169C207.766 306.466 207.861 308.686 207.94 310.955C207.94 311.676 207.371 312.053 206.802 312.053Z" fill="black"/>
<path d="M220.319 309.164C219.702 309.147 219.228 308.627 219.228 308.024C219.275 303.843 219.181 299.665 219.133 295.485C219.086 292.066 219.101 288.636 219.165 285.22C219.038 284.007 220.651 283.344 221.283 284.462C221.504 290.55 221.251 296.791 221.472 302.932C221.472 304.65 221.472 306.368 221.457 308.085C221.457 308.676 220.935 309.164 220.35 309.164C220.334 309.164 220.319 309.164 220.319 309.164Z" fill="black"/>
<path d="M185.385 340.496C184.31 339.158 185.164 337.309 185.211 335.771C185.338 334.165 185.464 332.318 185.179 330.764C184.642 328.271 182.303 325.137 179.616 324.846C178.383 324.97 176.96 325.397 175.822 325.691C175.031 325.936 174.13 326.295 173.372 325.823C172.471 325.27 172.407 323.843 172.471 322.956C173.198 318.919 172.834 313.41 167.918 312.494C161.627 309.279 181.828 304.106 183.915 303.534C190.933 301.678 198.078 300.453 205.144 298.83C206.535 298.519 207.088 300.626 205.65 300.989C199.927 302.298 194.126 303.358 188.404 304.693C182.113 306.274 175.68 307.827 169.894 310.807C172.36 311.597 173.798 313.875 174.573 316.193C175.379 318.655 174.763 321.214 174.699 323.722C180.485 321.695 183.14 322.572 186.46 327.76C188.278 331.136 187.472 335.14 187.092 338.761C193.968 336.619 200.734 334.079 207.483 331.543C213.316 329.288 219.196 326.964 224.476 323.56C224.46 323.57 224.46 323.573 224.444 323.58C229.06 320.583 236.41 315.039 232.585 308.968C230.467 305.958 225.472 303.875 221.884 303.675C220.919 303.682 220.429 302.374 221.141 301.757C221.836 301.188 222.848 301.52 223.654 301.601C233.391 303.63 240.378 310.981 232.553 319.853C225.266 327.464 214.944 330.989 205.333 334.733C201.018 336.365 196.656 337.885 192.309 339.386C190.823 339.73 188.657 340.997 186.934 341C186.365 341 185.828 340.859 185.385 340.496Z" fill="black"/>
<path d="M172.042 306.688C171.805 301.478 172.2 296.304 172.437 291.109C172.516 289.725 172.611 288.336 172.642 286.949C172.658 286.514 172.642 286.073 172.959 285.728C173.433 285.206 174.207 285.293 174.555 285.662C174.871 285.969 174.966 286.393 174.887 286.791C174.697 291.456 174.366 296.111 174.239 300.778C174.207 302.02 174.192 303.251 174.207 304.493C174.113 305.592 174.824 307.572 173.196 307.751C173.18 307.751 173.164 307.754 173.148 307.754C172.579 307.754 172.058 307.275 172.042 306.688Z" fill="black"/>
<path d="M158.417 305.865C157.358 305.774 157.358 304.634 157.437 303.848C157.485 301.715 157.516 299.578 157.469 297.452C157.39 293.984 157.264 290.511 157.343 287.042C157.406 286.054 156.947 284.508 158.259 284.209C159.05 284.03 159.777 284.855 159.556 285.593C159.477 291.553 159.824 297.719 159.666 303.647C159.666 304.612 159.761 305.865 158.465 305.865C158.449 305.865 158.433 305.865 158.417 305.865Z" fill="black"/>
<path d="M139.449 337.627C131.736 337.627 139.323 330.971 135.45 326.474C133.158 324.012 129.712 323.376 126.583 322.58C125.761 322.363 124.844 322.112 124.354 321.366C123.895 320.663 124.164 319.832 124.306 319.072C125.302 314.575 123.737 311.903 120.339 309.044C119.39 308.23 118.205 307.751 116.972 307.552C116.276 307.564 115.549 307.235 115.518 306.461C115.502 305.022 117.446 305.299 118.284 304.934C121.335 304.196 124.354 303.353 127.42 302.75C137.632 301.141 147.859 299.398 158.149 298.366C159.572 298.516 159.414 300.671 157.944 300.574C155.32 300.778 152.759 301.205 150.151 301.537C140.335 303.096 130.376 304.01 120.75 306.604C125.776 310.282 127.831 313.996 126.361 320.19C135.482 322.346 141.03 324.808 138.027 335.258C143.148 335.73 148.507 334.265 153.391 333.23C160.457 331.63 167.365 329.161 173.087 324.618C174.209 323.767 175.6 325.433 174.462 326.353C169.088 330.571 162.733 333.289 156.063 334.831C150.609 336.237 145.14 337.431 139.497 337.627C139.481 337.627 139.465 337.627 139.449 337.627Z" fill="black"/>
<path d="M183.552 304.205C182.398 301.76 180.232 299.399 177.403 299.088C176.486 298.922 175.648 298.998 174.795 299.077C174.21 299.129 173.625 299.184 173.024 299.157C171.87 298.774 172.108 297.022 173.34 296.995C178.747 295.938 183.267 298.264 185.559 303.23C185.97 304.105 185.227 304.822 184.5 304.822C184.137 304.822 183.773 304.64 183.552 304.205Z" fill="black"/>
<path d="M73.0579 153.574C67.2251 152.453 60.9181 150.104 57.5196 144.963C54.2475 148.691 48.6044 148.718 44.0678 147.838C37.2075 146.077 31.5169 138.893 32.4337 131.735C28.6558 133.603 24.3564 132.185 20.7207 130.643C11.1575 126.013 8.78643 114.733 17.5119 107.907C10.1616 107.118 -0.634679 103.848 0.0292178 94.7681C-0.0182034 86.129 8.0593 83.3529 15.2989 82.1769C-0.0497251 74.7515 2.8271 61.2527 18.8713 57.8078C28.4187 55.6849 38.5195 56.8468 47.8773 59.312C60.6178 62.9014 71.5405 70.5231 83.4748 75.948C87.7743 78.0253 92.39 79.0004 97.0689 79.5044C98.4757 80.0273 97.7644 82.18 96.2785 81.5896C91.568 81.2175 86.9998 80.0383 82.7318 78.0379C66.5612 70.5623 53.0778 60.2981 34.5045 59.1817C26.3797 58.4186 10.8254 59.0576 7.664 68.1474C6.20975 74.3653 12.1849 78.0693 16.8954 80.5219C17.8438 81.0934 19.8671 81.5551 19.1874 83.053C18.5077 84.149 16.9586 84.0391 15.8363 84.3327C11.5842 85.1775 6.79468 86.0018 3.9336 89.4766C2.46354 91.364 2.13159 93.961 2.27385 96.244C2.96936 102.555 10.6357 104.425 15.8837 105.475C17.2589 105.651 18.6499 105.872 20.0252 105.803C21.1 105.497 22.3173 105.886 21.9853 107.19C21.6534 108 20.5942 108.276 19.9778 108.824C17.1325 110.801 14.7772 113.728 14.303 117.218C13.7813 123.391 19.2032 128.492 24.8937 129.799C26.5693 130.329 28.3713 130.628 30.11 130.227C31.5169 129.909 32.5918 129.095 33.809 128.45C34.868 128.075 35.69 129.274 35.2316 130.19C32.7025 136.414 37.9662 143.393 43.8148 145.488C48.1143 146.518 53.8997 146.698 56.5869 142.559C56.8714 141.887 57.5037 141.242 58.2783 141.534C59.2741 141.873 58.9738 143.084 59.4322 143.814C61.8032 147.425 66.0396 149.336 70.0072 150.599C74.0854 151.68 78.543 152.565 82.6371 151.305C83.2219 151.144 83.8384 151.447 84.0281 152.037C84.2019 152.599 83.87 153.266 83.2851 153.423C81.6253 153.926 79.9023 154.143 78.1635 154.143C76.4564 154.143 74.7334 153.932 73.0579 153.574Z" fill="black"/>
<path d="M157.848 78.2619C157.137 78.1928 156.441 78.0907 155.73 77.9588C155.082 77.8175 154.323 77.6134 153.548 77.3653C152.774 77.0889 152.031 76.7765 151.304 76.42C150.624 76.0652 149.96 75.6821 149.312 75.2581C148.727 74.8373 148.142 74.3961 147.589 73.9235C147.036 73.4163 146.499 72.8934 145.993 72.3376C145.439 71.7032 144.934 71.0438 144.475 70.3482C144.048 69.6762 143.637 68.9915 143.29 68.2755C143.037 67.7338 142.736 67.0398 142.499 66.3269C142.483 66.3128 142.436 66.1574 142.389 66.0019C142.199 65.4053 142.025 64.7411 141.883 64.0738C141.883 64.0612 141.851 63.9089 141.82 63.7535C141.709 63.0752 141.63 62.389 141.582 61.7028C141.582 61.6023 141.567 61.505 141.567 61.4045V61.2946C141.551 60.6665 141.567 59.9992 141.598 59.3319V59.3334C141.614 59.2973 141.614 59.2564 141.614 59.2156C141.614 59.1905 141.614 59.1434 141.63 59.0979C141.63 59.0979 141.63 59.0885 141.63 59.0838C141.63 59.0429 141.63 59.0021 141.63 58.9628C141.693 58.3316 141.804 57.6502 141.946 56.9797C142.12 56.2418 142.325 55.5179 142.563 54.7972C142.8 54.1142 143.1 53.4532 143.416 52.8015C143.416 52.7937 143.416 52.7795 143.432 52.7638C143.479 52.6759 143.527 52.5833 143.574 52.4938C143.89 51.8877 144.238 51.3067 144.617 50.7383C145.076 50.0898 145.566 49.4617 146.103 48.8651C146.578 48.3391 147.083 47.8445 147.621 47.3719C148.237 46.8521 148.87 46.3716 149.533 45.921C150.229 45.4751 150.956 45.0715 151.699 44.7041C152.395 44.3822 153.122 44.0996 153.849 43.8547C154.576 43.627 155.335 43.4386 156.093 43.2894C156.884 43.1512 157.69 43.0586 158.496 43.0099C159.223 42.9832 159.95 42.9958 160.677 43.0413C161.547 43.1198 162.4 43.2439 163.254 43.4213C163.902 43.5752 164.55 43.7558 165.182 43.9725C165.578 44.1075 165.941 44.252 166.321 44.4105C166.653 44.555 166.984 44.7025 167.301 44.858C167.996 45.2097 168.66 45.5976 169.308 46.0246C169.909 46.4313 170.525 46.8976 171.094 47.4001C171.126 47.4236 171.158 47.4457 171.173 47.4692C171.679 47.9214 172.217 48.4631 172.738 49.0347C173.244 49.6345 173.734 50.2484 174.177 50.9C174.177 50.9 174.177 50.9016 174.177 50.9048C174.177 50.9079 174.177 50.9142 174.192 50.922C174.192 50.9424 174.208 50.9722 174.24 51.0005C174.635 51.638 175.014 52.2912 175.362 52.9695C175.663 53.618 175.947 54.2838 176.184 54.9637C176.2 55.0359 176.232 55.1081 176.247 55.1803L176.263 55.2211C176.5 55.9669 176.69 56.7489 176.848 57.5403C176.975 58.3049 177.054 59.068 177.101 59.8468C177.133 60.6052 177.117 61.3637 177.069 62.1252C176.99 62.8773 176.88 63.6168 176.737 64.3579C176.579 65.0739 176.358 65.7648 176.137 66.4604C175.868 67.2235 175.536 67.9615 175.188 68.6916C174.841 69.3166 174.493 69.9195 174.098 70.5162C173.687 71.1128 173.26 71.6922 172.786 72.2339C172.691 72.3234 172.549 72.4899 172.391 72.6611C171.995 73.0662 171.49 73.5592 170.968 74.0334C170.399 74.5028 169.814 74.9456 169.213 75.3617C168.534 75.7935 167.838 76.1892 167.127 76.5456C166.336 76.913 165.53 77.2271 164.708 77.5034C164.06 77.6934 163.412 77.8583 162.748 77.9996C161.847 78.1582 160.946 78.2587 160.029 78.3137C159.855 78.3168 159.682 78.3184 159.508 78.3184C158.955 78.3184 158.401 78.3011 157.848 78.2619ZM160.44 55.7974C158.227 56.8526 158.623 60.5534 160.804 61.4751C161.168 61.6337 161.547 61.706 161.926 61.706C164.471 61.706 166.795 58.4007 164.408 56.5291C164.013 55.733 163.064 55.3876 162.116 55.3876C161.515 55.3876 160.899 55.5321 160.44 55.7974Z" fill="white"/>
<path d="M101.306 75.6606C101.211 75.6574 101.117 75.6558 101.022 75.6527C100.326 75.6119 99.6307 75.549 98.9352 75.4533V75.4564C98.9194 75.4564 98.9195 75.4564 98.9195 75.4533C98.9195 75.4533 98.9036 75.4533 98.9036 75.4501C98.872 75.4454 98.8245 75.4392 98.7929 75.4329C98.6822 75.4125 98.5717 75.3952 98.4453 75.3779C97.8446 75.2696 97.1965 75.1079 96.5484 74.932C96.5168 74.9257 96.3587 74.877 96.2006 74.8283C95.5051 74.6179 94.7621 74.3259 94.0508 74.0119C93.3869 73.701 92.7388 73.3633 92.1065 72.9944C91.4584 72.5908 90.8262 72.1559 90.2256 71.6943C89.5459 71.1384 88.8977 70.5496 88.2812 69.9216C87.7121 69.3186 87.1905 68.6906 86.7005 68.0327C86.2737 67.4344 85.8785 66.822 85.5149 66.1861C85.1356 65.4685 84.7721 64.7321 84.4717 63.9659C84.4243 63.8685 84.3927 63.7696 84.3611 63.6723C84.1081 62.9861 83.8868 62.2544 83.6971 61.5039C83.5391 60.7753 83.3968 60.0452 83.302 59.3072C83.2229 58.4106 83.1756 57.5235 83.2072 56.6238C83.2388 55.823 83.3178 55.0332 83.4443 54.2402C83.5865 53.5085 83.7288 52.7785 83.9501 52.0687L83.9659 51.9981C83.9659 51.9918 83.9818 51.9714 83.9818 51.951C83.9818 51.9259 83.9975 51.9022 83.9975 51.8787C84.0133 51.8614 84.0134 51.8332 84.0292 51.8049C84.2347 51.1533 84.5034 50.4404 84.8195 49.7323C85.1357 49.0367 85.4992 48.3616 85.8944 47.7052C86.2896 47.0599 86.7322 46.4114 87.2222 45.8022C87.2697 45.7456 87.3328 45.664 87.396 45.5839C87.8228 45.094 88.3445 44.5256 88.8977 43.9776C89.4668 43.4563 90.0516 42.9664 90.6522 42.5048C91.3161 42.0228 92.0749 41.5423 92.8652 41.1042C93.5449 40.7431 94.2563 40.4181 94.9834 40.126C95.7738 39.8245 96.5958 39.5764 97.4178 39.3691C98.2081 39.1933 99.0142 39.0598 99.8203 38.9656C100.642 38.8903 101.464 38.8605 102.286 38.873C103.108 38.9107 103.914 38.9845 104.705 39.1054C105.511 39.2467 106.301 39.4257 107.076 39.6502C107.803 39.881 108.546 40.1385 109.241 40.4525C109.273 40.4635 109.352 40.495 109.415 40.528L109.431 40.5358C110.063 40.8294 110.664 41.1435 111.265 41.4905C111.281 41.5015 111.296 41.5124 111.312 41.5281C111.344 41.547 111.391 41.5674 111.423 41.5909C111.439 41.605 111.47 41.6176 111.486 41.6318C111.534 41.6632 111.581 41.6915 111.628 41.7229C111.644 41.726 111.644 41.7323 111.66 41.7386C111.707 41.7763 111.77 41.8124 111.834 41.8469C111.85 41.8626 111.865 41.8736 111.881 41.8846C111.913 41.9081 111.944 41.9285 111.976 41.9521C112.466 42.2677 112.925 42.6084 113.383 42.9664C113.952 43.4296 114.489 43.9195 115.011 44.4424C115.548 45.0092 116.07 45.6043 116.544 46.2292C116.592 46.292 116.639 46.3564 116.687 46.4223C117.145 47.0598 117.556 47.7162 117.951 48.3945C118.346 49.1199 118.694 49.861 118.994 50.6257C119.295 51.4296 119.548 52.2477 119.753 53.0846C119.927 53.8508 120.053 54.6203 120.148 55.4054C120.227 56.1857 120.243 56.9677 120.243 57.7543C120.211 58.53 120.117 59.3999 119.99 60.2729C119.864 60.9905 119.69 61.697 119.5 62.4036C119.279 63.151 119.01 63.8795 118.71 64.6034C118.678 64.663 118.631 64.7525 118.599 64.8452C118.599 64.8483 118.599 64.8483 118.599 64.8483C118.331 65.445 118.03 66.0307 117.682 66.5928C117.603 66.7137 117.524 66.8566 117.429 67.001L117.382 67.0827C117.082 67.5317 116.702 68.0829 116.291 68.6246C116.276 68.645 116.212 68.7109 116.165 68.7769L116.07 68.8868C115.58 69.4976 115.027 70.0691 114.458 70.6218C113.999 71.0364 113.43 71.5294 112.83 71.9911C112.118 72.5045 111.375 72.9709 110.617 73.4011C110.016 73.7292 109.257 74.0841 108.483 74.395C107.708 74.6839 106.934 74.9288 106.127 75.1329C106.064 75.1502 106.001 75.1675 105.922 75.1848C105.258 75.3402 104.436 75.4737 103.614 75.5679C102.903 75.6338 102.207 75.6621 101.512 75.6621C101.449 75.6621 101.37 75.6621 101.306 75.6606ZM90.6681 57.0478C91.174 57.3555 91.6956 57.4889 92.2015 57.4889C94.6832 57.4889 96.659 54.2057 94.035 52.4126C93.6873 51.7783 92.8969 51.6118 92.2172 51.6087C92.2014 51.6087 92.1856 51.607 92.1698 51.607C89.4668 51.607 88.4552 55.6079 90.6681 57.0478Z" fill="white"/>
<path d="M138.025 335.259C141.028 324.809 135.48 322.347 126.36 320.191C127.83 313.997 125.775 310.283 120.748 306.604C130.375 304.011 140.333 303.097 150.149 301.538C152.615 301.227 155.018 300.828 157.484 300.614C157.484 301.69 157.452 302.772 157.436 303.849C157.357 304.635 157.357 305.775 158.416 305.867C158.432 305.867 158.448 305.867 158.464 305.867C159.76 305.867 159.665 304.614 159.665 303.648C159.823 297.841 159.491 291.806 159.554 285.96C160.345 285.998 161.135 286.026 161.925 286.046C165.545 286.029 169.149 286.032 172.769 286.037C172.658 286.319 172.658 286.635 172.643 286.949C172.611 288.336 172.532 289.725 172.437 291.108C172.2 296.303 171.805 301.476 172.042 306.686C172.042 306.89 172.121 307.083 172.216 307.245C167.98 308.96 164.897 310.952 167.916 312.494C172.832 313.411 173.196 318.919 172.469 322.955C172.421 323.517 172.437 324.299 172.674 324.933C167.047 329.278 160.297 331.669 153.39 333.231C149.153 334.13 144.553 335.35 140.08 335.35C139.385 335.35 138.705 335.321 138.025 335.259Z" fill="#F7AA0F"/>
<path d="M186.458 327.757C183.139 322.569 180.483 321.693 174.698 323.719C174.777 321.211 175.378 318.652 174.571 316.19C173.797 313.872 172.358 311.595 169.893 310.804C175.678 307.824 182.111 306.271 188.403 304.691C194.03 303.379 199.72 302.333 205.348 301.056C205.427 304.393 205.601 307.726 205.711 311.079C205.775 311.734 206.28 312.051 206.802 312.051C207.371 312.051 207.94 311.672 207.94 310.952C207.861 308.683 207.766 306.464 207.671 304.165C207.419 299.409 207.577 294.394 207.64 289.577C207.592 287.897 207.608 287.273 207.719 285.78C211.544 285.666 215.354 285.504 219.163 285.276C219.1 288.672 219.084 292.084 219.132 295.484C219.179 299.664 219.274 303.84 219.226 308.023C219.226 308.626 219.701 309.144 220.317 309.162C220.317 309.162 220.333 309.162 220.349 309.162C220.933 309.162 221.455 308.675 221.455 308.083C221.471 306.585 221.471 305.085 221.471 303.586C221.582 303.644 221.724 303.672 221.882 303.672C225.47 303.872 230.465 305.955 232.583 308.965C236.393 315.031 229.074 320.569 224.458 323.566C219.195 326.964 213.315 329.288 207.482 331.54C200.732 334.076 193.967 336.616 187.091 338.758C187.47 335.137 188.276 331.133 186.458 327.757Z" fill="#F7AA0F"/>
<path d="M113.557 129.522C106.76 129.34 99.852 128.622 93.1656 127.19C84.1239 125.438 75.1297 122.555 83.0807 112.355C87.6648 114.324 92.7389 114.414 97.6549 114.861C102.239 115.221 106.823 115.535 111.407 115.835C117.335 116.218 123.325 116.711 129.206 115.394C133.221 114.21 137.03 112.406 140.935 110.938C145.282 109.341 149.486 107.309 153.722 105.557C154.971 104.954 154.212 103.022 152.806 103.468C149.47 104.933 146.183 106.557 142.752 107.824C136.856 109.897 131.245 113.241 124.938 113.83C117.493 114.431 109.842 113.393 102.365 112.993C96.8645 112.489 91.3952 112.486 86.005 111.065C83.6972 110.413 81.2155 109.127 80.3145 106.799C80.2038 105.588 80.836 104.434 81.4051 103.402C84.772 98.1988 90.099 94.4665 95.2521 91.1142C103.424 86.0865 111.233 80.5233 120.196 76.8963C122.946 75.9259 125.934 74.3982 128.969 74.4704C134.991 75.0404 139.575 79.2547 144.317 82.7201C148.332 85.862 151.731 89.7874 154.955 93.7317C164.645 104.132 159.445 109.407 150.861 117.81C143.227 125.597 137.9 127.798 127.024 128.946L127.135 128.936C123.294 129.335 119.453 129.541 115.596 129.541C114.916 129.541 114.236 129.535 113.557 129.522ZM132.225 83.9416C134.058 85.3768 135.687 87.0584 137.726 88.2172C137.931 88.3585 138.137 88.4182 138.342 88.4182C139.291 88.4182 139.97 87.0757 138.99 86.3958C137.125 85.3202 135.576 83.8317 133.948 82.4546C133.632 82.1893 133.3 81.9381 132.873 81.869C132.826 81.8627 132.778 81.8596 132.731 81.8596C131.624 81.8596 131.276 83.4643 132.225 83.9416ZM123.484 82.3024C122.583 82.7954 121.65 83.2445 120.686 83.6339C119.864 83.9071 118.568 84.2557 118.915 85.4003C119.073 85.862 119.532 86.176 119.99 86.176C120.101 86.176 120.211 86.1587 120.322 86.121C122.282 85.4694 124.068 84.5352 125.855 83.513C126.155 83.4376 126.424 83.2445 126.566 82.9525C126.882 82.3731 126.582 81.6162 125.965 81.3995C125.839 81.3587 125.712 81.3399 125.586 81.3399C124.843 81.3399 124.132 82.0072 123.484 82.3024Z" fill="#F7AA0F"/>
<path d="M160.487 283.789C142.467 283.075 124.368 278.015 109.098 268.349C96.579 260.356 85.277 249.2 81.9733 234.305C78.3693 216.405 79.6812 197.858 81.3094 179.754C82.9059 162.586 87.3634 145.843 91.0781 129.028C91.3626 129.089 91.6631 129.144 91.9634 129.196C99.0291 130.749 106.237 131.551 113.461 131.73C123.609 131.661 134.468 131.566 143.605 126.645C146.608 124.936 149.122 122.476 151.619 120.15C154.133 117.743 156.677 115.299 158.922 112.466C161.783 109.081 163.285 104.708 161.846 100.338C161.435 98.0172 159.665 96.0608 158.195 94.2237C152.836 87.1328 146.482 80.8317 138.894 76.0427C133.899 72.6731 128.43 70.9349 122.676 73.5932C115.342 76.0568 108.656 80.056 102.111 84.1715C100.831 84.9911 99.5348 85.7982 98.2387 86.6021C98.3967 85.5768 98.5233 84.5389 98.6181 83.5041C98.7288 81.6874 98.8552 79.6227 99.0607 77.7039C99.8036 77.7981 100.547 77.8453 101.305 77.8704H101.337C101.479 77.8735 101.621 77.8767 101.78 77.8767C103.392 77.8767 105.02 77.6631 106.601 77.291C111.011 76.2311 115.01 73.7219 117.855 70.2142L117.871 70.1906C117.887 70.1718 117.903 70.1514 117.918 70.131C117.95 70.087 118.013 70.0211 118.061 69.952C118.061 69.9488 118.077 69.9441 118.077 69.9379C118.092 69.9284 118.092 69.9206 118.092 69.9143C118.551 69.3412 118.993 68.7241 119.373 68.0866C119.389 68.0646 119.468 67.9202 119.562 67.7789C119.973 67.1131 120.384 66.2935 120.764 65.455C121.76 63.2269 122.36 60.6503 122.455 58.0705C122.629 53.4228 121.206 48.7798 118.424 45.0349C118.092 44.5827 117.65 44.0316 117.176 43.5071C116.275 42.5007 115.279 41.5979 114.204 40.7971C114.156 40.7625 114.125 40.728 114.077 40.6997C112.923 39.8549 111.691 39.117 110.379 38.5281C110.331 38.5062 110.252 38.4732 110.189 38.4418L110.157 38.4308C110.141 38.4245 110.141 38.4214 110.126 38.4167C110.11 38.4135 110.11 38.4072 110.094 38.4041C109.841 38.2863 109.572 38.1717 109.288 38.0618C109.256 38.0445 109.209 38.032 109.177 38.021C107.47 37.3694 105.684 36.9281 103.882 36.7586C103.645 36.735 103.408 36.7177 103.171 36.7036C103.74 33.7517 104.83 30.9097 106.19 28.2263C110.647 19.7834 117.523 12.0738 126.597 8.42162C132.271 5.8277 138.563 4.38317 144.711 3.3924C162.194 0.405929 181.084 2.99201 195.974 12.983C202.976 17.8568 207.956 25.0985 211.512 32.7374C215.227 40.1627 216.523 48.6761 216.744 56.9258V56.9227C217.282 69.2925 216.555 81.6608 216.144 94.0243C216.08 95.7656 216.001 97.5069 215.843 99.242C215.827 99.6 215.733 100.107 215.717 100.592C205.632 107.412 197.839 117.25 189.382 125.883C183.265 132.572 177.179 139.311 171.283 146.201C170.414 147.236 169.56 148.278 168.738 149.349C168.122 149.948 167.821 151.034 168.691 151.544C168.865 151.634 169.054 151.678 169.228 151.678C169.655 151.678 170.066 151.461 170.24 151.07C173.338 146.974 176.8 143.243 180.214 139.355C187.375 131.272 194.709 123.355 202.202 115.578C207.576 109.954 213.156 104.383 220.032 100.482C232.583 94.6366 245.972 90.4882 258.759 85.1669C274.219 78.7967 289.9 72.9526 305.991 68.396C315.159 65.835 324.185 62.5267 333.653 61.3412C335.661 61.1512 338.095 61.0821 339.96 62.2613C343.691 64.593 344.797 69.5893 341.699 72.9212C340.103 74.7834 337.827 76.1808 335.645 77.3286C334.507 77.9143 333.211 78.4765 331.899 79.0119C331.63 79.1249 331.44 79.3432 331.33 79.6039C330.619 80.1534 330.808 81.5194 331.946 81.5901C334.096 81.2195 336.246 80.2916 338.396 79.7876C343.944 78.5283 350.583 76.2452 355.736 79.8283C360.02 83.1571 359.83 88.8679 355.91 92.4196C353.349 94.9476 349.792 95.9415 346.441 97.0092C345.714 97.2212 344.703 97.3233 344.434 98.1445C344.292 98.5731 344.434 99.0237 344.766 99.3268C345.493 99.7868 346.378 99.6973 347.263 99.611C347.659 99.5717 348.054 99.5309 348.433 99.5419C352.986 99.4995 357.886 97.821 362.233 99.7821C364.778 101.396 365.979 105.08 364.809 107.87C363.798 110.222 361.411 111.571 359.308 112.869C356.495 114.526 353.144 115.233 349.935 115.788C349.461 115.875 348.939 115.936 348.496 116.153C347.643 116.544 347.627 117.805 348.449 118.243C351.231 119.268 354.313 119.579 356.921 121.127C364.841 125.362 357.933 131.81 352.211 133.679C349.065 135.183 345.477 135.083 342.063 135.262C340.846 135.183 339.391 135.924 340.213 137.29C340.767 138.005 341.731 138.311 342.49 138.801C351.373 143.27 358.028 151.981 344.465 155.748C330.539 159.048 311.887 150.736 299.147 145.163C299.036 145.115 298.925 145.082 298.815 145.064C298.072 144.642 297.408 144.45 296.934 144.698C295.985 145.25 296.333 146.602 297.376 146.801C300.98 149.178 304.078 152.554 306.766 155.953C308.046 157.59 308.979 159.478 309.611 161.51C310.67 165.208 309.801 170.198 306.291 172.326C301.028 175.468 294.531 172.969 290.152 169.4C289.52 168.967 289.014 168.297 288.224 168.169C287.592 168.097 286.991 168.642 286.991 169.259C287.671 171.804 289.504 174.029 289.805 176.733C289.947 178.547 288.999 180.432 287.813 181.781C286.865 182.66 285.537 183.04 284.272 183.237C271.358 184.399 256.357 171.479 250.445 160.799C250.081 159.679 249.086 158.426 247.853 159.372C247.173 160.052 247.078 161.061 246.557 161.865C245.007 164.734 242.13 166.912 238.843 167.342C236.282 167.8 234.101 166.56 232.014 165.235C231.002 164.555 229.548 163.194 228.378 164.335C227.809 165.042 227.904 166.017 227.904 166.869C227.888 168.722 227.43 170.567 226.497 172.181C224.822 174.816 222.672 177.575 219.827 179.048C217.961 179.729 216.08 179.264 214.168 178.823C212.476 178.423 210.88 177.699 209.347 176.878C208.809 176.595 208.114 176.871 207.861 177.399C207.592 177.961 207.845 178.598 208.382 178.878C210.785 180.195 213.409 181.122 216.144 181.475C220.744 182.475 224.269 178.953 226.845 175.612C228.963 173.049 230.18 170.014 230.133 166.632C232.283 168.063 234.606 169.562 237.278 169.631C242.115 169.81 246.715 166.725 248.77 162.434C255.14 173.05 267.943 184.223 280.716 185.457C281.316 185.517 281.933 185.551 282.549 185.551C285.711 185.551 289.062 184.65 290.627 181.723C292.46 178.702 292.397 175.84 290.879 172.643C294.594 175.307 299.321 176.446 303.383 175.728C303.541 176.077 303.873 176.344 304.315 176.347C305.058 176.785 305.675 177.426 306.26 178.043C310.464 182.45 312.314 188.723 316.866 192.796C319.933 194.914 323.869 194.872 327.346 193.923C331.836 192.983 336.293 190.493 337.969 186.027C339.676 182.695 339.739 177.011 335.392 175.712C333.353 175.078 330.287 175.353 329.591 177.719C328.421 174.456 327.836 170.507 330.255 167.653C334.017 163.258 339.929 161.903 345.145 164.577C348.749 166.345 352.527 168.143 354.835 171.577C357.57 175.777 358.518 181.853 355.91 186.358C355.467 187.413 353.555 188.434 354.693 189.624C355.72 190.409 357.095 189.524 358.233 189.403C363.371 188.252 368.492 187.037 373.709 186.333C376.317 186.179 386.844 183.992 388.156 185.961C388.883 189.638 385.469 192.571 383.114 194.942C380.363 197.535 376.996 198.924 373.566 200.584C372.808 200.966 371.827 201.149 371.385 201.953C370.895 202.966 371.907 203.781 372.823 203.98C375.732 204.888 378.735 205.415 381.707 206.095C385.058 206.97 388.82 207.183 391.65 209.377C396.803 215.433 383.272 220.14 378.893 221.189C374.657 222.216 370.168 222.147 365.773 222.164C365.584 222.166 365.394 222.161 365.173 222.155C363.94 222.124 362.312 222.095 362.47 223.658C362.659 224.501 363.576 224.838 364.288 225.185C368.35 226.997 372.681 228.148 376.791 229.872C379.446 231.103 384.22 233.077 381.565 236.591C379.115 239.805 375.811 242.382 371.733 243.084C366.263 244.227 360.589 243.489 355.04 243.343C350.52 243.167 345.983 243.068 341.462 242.954C330.318 242.258 322.952 245.032 313.041 249.693C310.338 250.913 307.714 252.251 305.122 253.697C305.027 253.748 304.948 253.818 304.869 253.896C304.821 253.917 304.774 253.938 304.727 253.968C301.96 255.694 299.257 257.465 296.491 259.235C296.459 259.258 296.412 259.283 296.38 259.31C293.899 260.962 291.512 262.725 288.999 264.336C288.145 264.928 287.133 265.473 286.169 265.935C286.058 265.98 285.948 266.029 285.837 266.081C285.837 266.081 285.837 266.077 285.837 266.084C285.758 266.101 285.695 266.132 285.616 266.167C282.581 267.776 279.435 269.27 276.274 270.623C256.547 279.499 235.033 282.748 213.504 283.307C201.617 283.731 189.714 283.885 177.812 283.885C172.026 283.885 166.257 283.849 160.487 283.789ZM140.412 67.0896C141.708 71.0558 144.506 74.7112 148.11 77.1151C150.054 78.4121 152.22 79.395 154.496 79.9492C156.093 80.3355 157.737 80.5349 159.365 80.5349C160.139 80.5349 160.898 80.4942 161.657 80.4047C164.044 80.1283 166.399 79.4296 168.533 78.3179C170.635 77.2219 172.611 75.7805 174.176 74.0015C174.966 73.1065 175.741 72.1549 176.373 71.1107C176.99 70.0791 177.559 69.0131 177.985 67.8857C178.807 65.7518 179.282 63.5127 179.345 61.2266C179.408 58.9812 179.092 56.706 178.396 54.5674L178.381 54.5392C178.381 54.5188 178.365 54.4984 178.365 54.478C178.349 54.4403 178.333 54.3806 178.317 54.3193C177.827 52.8324 177.069 51.2607 176.12 49.8256C175.14 48.326 173.939 46.9286 172.548 45.7211C171.663 44.9423 170.651 44.1902 169.576 43.5621C169.513 43.5291 169.465 43.5009 169.402 43.4695C169.386 43.4554 169.371 43.4412 169.339 43.4286C169.023 43.2496 168.707 43.0801 168.375 42.9183C168.059 42.7566 167.727 42.6043 167.411 42.4599C167.316 42.4175 167.205 42.3734 167.11 42.3342C167.11 42.3311 167.11 42.328 167.11 42.3248C166.952 42.2479 166.778 42.1929 166.604 42.1254C166.573 42.1082 166.525 42.0972 166.478 42.0862C165.972 41.8899 165.45 41.714 164.913 41.5585C160.534 40.2836 155.65 40.5552 151.461 42.3797C149.296 43.325 147.32 44.6079 145.581 46.2142C143.921 47.7561 142.514 49.6261 141.503 51.65C141.471 51.6909 141.439 51.7568 141.408 51.8228C140.286 54.0147 139.606 56.5129 139.4 59.0126L139.385 59.088C139.385 59.088 139.385 59.1131 139.385 59.1398C139.385 59.1602 139.385 59.179 139.385 59.1994C139.321 59.95 139.306 60.7131 139.353 61.4715C139.353 61.4966 139.353 61.6678 139.369 61.8374C139.4 62.6649 139.527 63.6274 139.716 64.5852C139.843 65.2274 140.048 66.0061 140.301 66.7661C140.333 66.876 140.365 66.9828 140.412 67.0896Z" fill="#8BB7E8"/>
<path d="M69.9937 150.6C66.0419 149.336 61.8055 147.425 59.4345 143.814C58.9761 143.084 59.2765 141.873 58.2965 141.534C57.5061 141.242 56.8737 141.889 56.5892 142.559C53.902 146.7 48.1008 146.518 43.8171 145.489C37.9685 143.393 32.7048 136.414 35.2339 130.191C35.6923 129.274 34.8703 128.074 33.827 128.45C32.5941 129.095 31.5193 129.908 30.1282 130.227C28.3737 130.629 26.5716 130.329 24.896 129.799C19.2055 128.492 13.7836 123.391 14.3053 117.218C14.7795 113.728 17.1348 110.803 19.9801 108.824C20.5966 108.276 21.6556 108 22.0033 107.19C22.3195 105.886 21.1023 105.499 20.0275 105.803C18.6523 105.872 17.2612 105.651 15.886 105.475C10.638 104.426 2.97167 102.554 2.27616 96.2439C2.13389 93.9609 2.46584 91.3639 3.9359 89.4765C6.79698 86.0033 11.5865 85.1774 15.8386 84.3342C16.9609 84.039 18.51 84.1489 19.1897 83.0529C19.8694 81.555 17.8461 81.0934 16.8977 80.5234C12.1872 78.0692 6.21205 74.3651 7.6663 68.1473C10.8277 59.0591 26.382 58.4185 34.5068 59.1832C53.0801 60.298 66.5635 70.5638 82.7341 78.0378C87.0021 80.0382 91.5703 81.2173 96.2808 81.5895C96.3599 81.6209 96.4389 81.6476 96.5179 81.6618C96.5021 82.3699 96.4706 82.9823 96.3915 83.3512C96.2809 84.6686 96.0912 85.997 95.8383 87.305C95.7909 87.5562 95.854 87.8043 95.9804 88.0147C90.8906 91.1974 85.8955 94.5466 81.9122 99.0435C78.4188 103.024 75.8264 107.516 81.1692 111.255C73.566 121.222 79.7466 126.295 88.9779 128.574C87.1601 135.393 85.8323 142.41 84.2042 149.294C84.0303 150.038 83.8564 150.781 83.6983 151.528C83.4138 151.291 83.0187 151.201 82.6394 151.305C81.2167 151.745 79.7307 151.924 78.2449 151.924C75.4786 151.924 72.6651 151.304 69.9937 150.6Z" fill="#8BB7E8"/>
</svg>
